# Blender v2.77 (sub 0) OBJ File: ''
# www.blender.org
mtllib box.mtl
o Cube
v 1.000000 0.000000 -1.000000
v 1.000000 0.000000 1.000000
v -1.000000 0.000000 1.000000
v -1.000000 0.000000 -1.000000
v 1.000000 2.000000 -0.999999
v 0.999999 2.000000 1.000001
v -1.000000 2.000000 1.000000
v -1.000000 2.000000 -1.000000
vt 0.9896 0.0156
vt 0.5093 0.4959
vt 0.5093 0.0156
vt 0.4964 0.9891
vt 0.0151 0.5078
vt 0.4964 0.5078
vt 0.4953 0.4944
vt 0.0160 0.0151
vt 0.4953 0.0151
vt 0.5102 0.5065
vt 0.9931 0.9894
vt 0.5102 0.9894
vt 0.9900 0.5084
vt 0.5110 0.9874
vt 0.5110 0.5084
vt 0.5092 0.0138
vt 0.9890 0.4936
vt 0.5092 0.4936
vt 0.9896 0.4959
vt 0.0151 0.9891
vt 0.0160 0.4944
vt 0.9931 0.5065
vt 0.9900 0.9874
vt 0.9890 0.0138
vn 0.0000 -1.0000 0.0000
vn 0.0000 1.0000 0.0000
vn 1.0000 -0.0000 0.0000
vn 0.0000 -0.0000 1.0000
vn -1.0000 -0.0000 -0.0000
vn 0.0000 0.0000 -1.0000
usemtl Material
s off
f 2/1/1 4/2/1 1/3/1
f 8/4/2 6/5/2 5/6/2
f 5/7/3 2/8/3 1/9/3
f 6/10/4 3/11/4 2/12/4
f 3/13/5 8/14/5 4/15/5
f 1/16/6 8/17/6 5/18/6
f 2/1/1 3/19/1 4/2/1
f 8/4/2 7/20/2 6/5/2
f 5/7/3 6/21/3 2/8/3
f 6/10/4 7/22/4 3/11/4
f 3/13/5 7/23/5 8/14/5
f 1/16/6 4/24/6 8/17/6
