# Blender v2.77 (sub 0) OBJ File: ''
# www.blender.org
mtllib disk.mtl
o Circle
v 0.000000 0.000000 -1.000000
v -0.195090 0.000000 -0.980785
v -0.382683 0.000000 -0.923880
v -0.555570 0.000000 -0.831470
v -0.707107 0.000000 -0.707107
v -0.831470 0.000000 -0.555570
v -0.923880 0.000000 -0.382683
v -0.980785 0.000000 -0.195090
v -1.000000 0.000000 -0.000000
v -0.980785 0.000000 0.195090
v -0.923880 0.000000 0.382683
v -0.831470 0.000000 0.555570
v -0.707107 0.000000 0.707107
v -0.555570 0.000000 0.831470
v -0.382683 0.000000 0.923880
v -0.195090 0.000000 0.980785
v 0.000000 0.000000 1.000000
v 0.195091 0.000000 0.980785
v 0.382684 0.000000 0.923879
v 0.555571 0.000000 0.831469
v 0.707107 0.000000 0.707106
v 0.831470 0.000000 0.555570
v 0.923880 0.000000 0.382683
v 0.980785 0.000000 0.195089
v 1.000000 0.000000 -0.000001
v 0.980785 0.000000 -0.195091
v 0.923879 0.000000 -0.382684
v 0.831469 0.000000 -0.555571
v 0.707106 0.000000 -0.707108
v 0.555569 0.000000 -0.831470
v 0.382682 0.000000 -0.923880
v 0.195089 0.000000 -0.980786
v 0.000000 0.133106 -1.000000
v -0.195090 0.133106 -0.980785
v -0.382683 0.133106 -0.923880
v -0.555570 0.133106 -0.831470
v -0.707107 0.133106 -0.707107
v -0.831470 0.133106 -0.555570
v -0.923880 0.133106 -0.382683
v -0.980785 0.133106 -0.195090
v -1.000000 0.133106 -0.000000
v -0.980785 0.133106 0.195090
v -0.923880 0.133106 0.382683
v -0.831470 0.133106 0.555570
v -0.707107 0.133106 0.707107
v -0.555570 0.133106 0.831470
v -0.382683 0.133106 0.923880
v -0.195090 0.133106 0.980785
v 0.000000 0.133106 1.000000
v 0.195091 0.133106 0.980785
v 0.382684 0.133106 0.923879
v 0.555571 0.133106 0.831469
v 0.707107 0.133106 0.707106
v 0.831470 0.133106 0.555570
v 0.923880 0.133106 0.382683
v 0.980785 0.133106 0.195089
v 1.000000 0.133106 -0.000001
v 0.980785 0.133106 -0.195091
v 0.923879 0.133106 -0.382684
v 0.831469 0.133106 -0.555571
v 0.707106 0.133106 -0.707108
v 0.555569 0.133106 -0.831470
v 0.382682 0.133106 -0.923880
v 0.195089 0.133106 -0.980786
vt 0.2254 0.0000
vt 0.4094 0.0628
vt 0.4442 0.4608
vt 0.6316 0.0320
vt 0.9715 0.1481
vt 0.5285 0.4147
vt 0.0334 0.9216
vt 0.0669 0.9608
vt 0.0334 0.9608
vt 0.1003 0.5628
vt 0.1338 0.6089
vt 0.1003 0.6089
vt 0.0334 0.8755
vt 0.0669 0.9216
vt 0.0669 0.9147
vt 0.1003 0.9608
vt 0.0669 0.9608
vt 0.0334 0.8243
vt 0.0669 0.8755
vt 0.0669 0.8635
vt 0.1003 0.9147
vt 0.0334 0.7699
vt 0.0669 0.8243
vt 0.0669 0.5628
vt 0.1003 0.6020
vt 0.0669 0.6020
vt 0.0669 0.8091
vt 0.1003 0.8635
vt 0.0334 0.7145
vt 0.0669 0.7699
vt 0.0000 0.9608
vt 0.0334 1.0000
vt 0.0000 1.0000
vt 0.0669 0.7537
vt 0.1003 0.8091
vt 0.0334 0.6601
vt 0.0669 0.7145
vt 0.0000 0.9147
vt 0.0334 0.9608
vt 0.0669 0.6993
vt 0.1003 0.7537
vt 0.0334 0.6089
vt 0.0669 0.6601
vt 0.0000 0.8635
vt 0.0334 0.9147
vt 0.0669 0.6481
vt 0.1003 0.6993
vt 0.0334 0.5628
vt 0.0669 0.6089
vt 0.0000 0.8091
vt 0.0334 0.8635
vt 0.1003 0.6481
vt 0.1003 0.8755
vt 0.1338 0.9216
vt 0.1003 0.9216
vt 0.0000 0.7537
vt 0.0334 0.8091
vt 0.1003 0.8243
vt 0.1338 0.8755
vt 0.0000 0.6993
vt 0.0334 0.7537
vt 0.1003 0.7699
vt 0.1338 0.8243
vt 0.0000 0.6481
vt 0.0334 0.6993
vt 0.1003 0.7145
vt 0.1338 0.7699
vt 0.0000 0.6020
vt 0.0334 0.6481
vt 0.1003 0.6601
vt 0.1338 0.7145
vt 0.0000 0.5628
vt 0.0334 0.6020
vt 0.1338 0.6601
vt 0.4094 0.5000
vt 0.3684 0.5308
vt 0.3229 0.5520
vt 0.2746 0.5628
vt 0.2254 0.5628
vt 0.1771 0.5520
vt 0.1316 0.5308
vt 0.0906 0.5000
vt 0.0558 0.4608
vt 0.0285 0.4147
vt 0.0096 0.3635
vt 0.0000 0.3091
vt 0.0000 0.2537
vt 0.0558 0.1020
vt 0.0096 0.1993
vt 0.0285 0.1481
vt 0.0906 0.0628
vt 0.1316 0.0320
vt 0.1771 0.0108
vt 0.2746 0.0000
vt 0.3229 0.0108
vt 0.3684 0.0320
vt 0.4442 0.1020
vt 0.4715 0.1481
vt 0.4904 0.1993
vt 0.5000 0.2537
vt 0.5000 0.3091
vt 0.4904 0.3635
vt 0.4715 0.4147
vt 0.8684 0.5308
vt 0.8229 0.5520
vt 0.6771 0.5520
vt 0.7746 0.5628
vt 0.7254 0.5628
vt 0.6316 0.5308
vt 0.5906 0.5000
vt 0.5558 0.4608
vt 0.5096 0.3635
vt 0.5000 0.3091
vt 0.5000 0.2537
vt 0.5096 0.1993
vt 0.5285 0.1481
vt 0.5558 0.1020
vt 0.5906 0.0628
vt 0.6771 0.0108
vt 0.7254 0.0000
vt 0.7746 0.0000
vt 0.8229 0.0108
vt 0.8684 0.0320
vt 0.9094 0.0628
vt 0.9442 0.1020
vt 0.9904 0.1993
vt 1.0000 0.2537
vt 1.0000 0.3091
vt 0.9904 0.3635
vt 0.9715 0.4147
vt 0.9442 0.4608
vt 0.9094 0.5000
vt 0.1338 0.5628
vt 0.1003 0.5628
vt 0.0669 0.5628
vt 0.0334 0.5628
vn -0.2785 -0.6857 0.6725
vn -0.6725 -0.6857 0.2785
vn -0.2785 -0.6857 -0.6725
vn 0.0000 0.6857 0.7279
vn 0.7279 0.6857 0.0000
vn -0.7279 0.6857 0.0000
vn -0.6052 -0.6857 0.4044
vn -0.6725 0.6857 0.2785
vn 0.7139 -0.6857 -0.1420
vn 0.7279 -0.6857 0.0000
vn -0.5147 -0.6857 0.5147
vn -0.6052 0.6857 0.4044
vn 0.6725 -0.6857 -0.2785
vn 0.7139 0.6857 -0.1420
vn -0.4044 -0.6857 0.6052
vn -0.5147 0.6857 0.5147
vn 0.6052 -0.6857 -0.4044
vn 0.6725 0.6857 -0.2785
vn -0.4044 0.6857 0.6052
vn -0.1420 -0.6857 -0.7139
vn 0.0000 0.6857 -0.7279
vn 0.0000 -0.6857 -0.7279
vn 0.5147 -0.6857 -0.5147
vn 0.6052 0.6857 -0.4044
vn -0.1420 -0.6857 0.7139
vn -0.2785 0.6857 0.6725
vn -0.1420 0.6857 -0.7139
vn 0.4044 -0.6857 -0.6052
vn 0.5147 0.6857 -0.5147
vn 0.0000 -0.6857 0.7279
vn -0.1420 0.6857 0.7139
vn -0.4044 -0.6857 -0.6052
vn -0.2785 0.6857 -0.6725
vn 0.2785 -0.6857 -0.6725
vn 0.4044 0.6857 -0.6052
vn 0.1420 -0.6857 0.7139
vn -0.5147 -0.6857 -0.5147
vn -0.4044 0.6857 -0.6052
vn 0.1420 -0.6857 -0.7139
vn 0.2785 0.6857 -0.6725
vn 0.2785 -0.6857 0.6725
vn 0.1420 0.6857 0.7139
vn -0.6052 -0.6857 -0.4044
vn -0.5147 0.6857 -0.5147
vn 0.1420 0.6857 -0.7139
vn 0.4044 -0.6857 0.6052
vn 0.2785 0.6857 0.6725
vn -0.6725 -0.6857 -0.2785
vn -0.6052 0.6857 -0.4044
vn 0.5147 -0.6857 0.5147
vn 0.4044 0.6857 0.6052
vn -0.7139 -0.6857 -0.1420
vn -0.6725 0.6857 -0.2785
vn 0.6052 -0.6857 0.4044
vn 0.5147 0.6857 0.5147
vn -0.7279 -0.6857 0.0000
vn -0.7139 0.6857 -0.1420
vn 0.6725 -0.6857 0.2785
vn 0.6052 0.6857 0.4044
vn -0.7139 -0.6857 0.1420
vn 0.7139 -0.6857 0.1420
vn 0.6725 0.6857 0.2785
vn -0.7139 0.6857 0.1420
vn 0.7139 0.6857 0.1420
usemtl None
s 1
f 15/1/1 11/2/2 3/3/3
f 49/4/4 57/5/5 41/6/6
f 12/7/7 43/8/8 11/9/2
f 26/10/9 57/11/5 25/12/10
f 13/13/11 44/14/12 12/7/7
f 27/15/13 58/16/14 26/17/9
f 14/18/15 45/19/16 13/13/11
f 28/20/17 59/21/18 27/15/13
f 15/22/1 46/23/19 14/18/15
f 2/24/20 33/25/21 1/26/22
f 29/27/23 60/28/24 28/20/17
f 16/29/25 47/30/26 15/22/1
f 3/31/3 34/32/27 2/33/20
f 30/34/28 61/35/29 29/27/23
f 17/36/30 48/37/31 16/29/25
f 4/38/32 35/39/33 3/31/3
f 31/40/34 62/41/35 30/34/28
f 18/42/36 49/43/4 17/36/30
f 5/44/37 36/45/38 4/38/32
f 32/46/39 63/47/40 31/40/34
f 19/48/41 50/49/42 18/42/36
f 6/50/43 37/51/44 5/44/37
f 1/26/22 64/52/45 32/46/39
f 20/53/46 51/54/47 19/55/41
f 7/56/48 38/57/49 6/50/43
f 21/58/50 52/59/51 20/53/46
f 8/60/52 39/61/53 7/56/48
f 22/62/54 53/63/55 21/58/50
f 9/64/56 40/65/57 8/60/52
f 23/66/58 54/67/59 22/62/54
f 10/68/60 41/69/6 9/64/56
f 24/70/61 55/71/62 23/66/58
f 11/72/2 42/73/63 10/68/60
f 25/12/10 56/74/64 24/70/61
f 3/3/3 2/75/20 1/76/22
f 1/76/22 32/77/39 3/3/3
f 31/78/34 30/79/28 29/80/23
f 29/80/23 28/81/17 27/82/13
f 27/82/13 26/83/9 25/84/10
f 25/84/10 24/85/61 27/82/13
f 23/86/58 22/87/54 19/88/41
f 21/89/50 20/90/46 19/88/41
f 19/88/41 18/91/36 17/92/30
f 17/92/30 16/93/25 19/88/41
f 15/1/1 14/94/15 11/2/2
f 13/95/11 12/96/7 11/2/2
f 11/2/2 10/97/60 9/98/56
f 9/98/56 8/99/52 7/100/48
f 7/100/48 6/101/43 5/102/37
f 5/102/37 4/103/32 3/3/3
f 3/3/3 32/77/39 31/78/34
f 31/78/34 29/80/23 27/82/13
f 27/82/13 24/85/61 23/86/58
f 22/87/54 21/89/50 19/88/41
f 19/88/41 16/93/25 15/1/1
f 14/94/15 13/95/11 11/2/2
f 11/2/2 9/98/56 7/100/48
f 7/100/48 5/102/37 11/2/2
f 3/3/3 31/78/34 27/82/13
f 27/82/13 23/86/58 19/88/41
f 19/88/41 15/1/1 3/3/3
f 11/2/2 5/102/37 3/3/3
f 3/3/3 27/82/13 19/88/41
f 33/104/21 34/105/27 37/106/44
f 35/107/33 36/108/38 37/106/44
f 37/106/44 38/109/49 39/110/53
f 39/110/53 40/111/57 37/106/44
f 41/6/6 42/112/63 43/113/8
f 43/113/8 44/114/12 45/115/16
f 45/115/16 46/116/19 47/117/26
f 47/117/26 48/118/31 45/115/16
f 49/4/4 50/119/42 51/120/47
f 51/120/47 52/121/51 53/122/55
f 53/122/55 54/123/59 55/124/62
f 55/124/62 56/125/64 53/122/55
f 57/5/5 58/126/14 59/127/18
f 59/127/18 60/128/24 61/129/29
f 61/129/29 62/130/35 63/131/40
f 63/131/40 64/132/45 61/129/29
f 34/105/27 35/107/33 37/106/44
f 37/106/44 40/111/57 41/6/6
f 41/6/6 43/113/8 49/4/4
f 45/115/16 48/118/31 49/4/4
f 49/4/4 51/120/47 57/5/5
f 53/122/55 56/125/64 57/5/5
f 57/5/5 59/127/18 61/129/29
f 61/129/29 64/132/45 33/104/21
f 33/104/21 37/106/44 41/6/6
f 43/113/8 45/115/16 49/4/4
f 51/120/47 53/122/55 57/5/5
f 57/5/5 61/129/29 33/104/21
f 33/104/21 41/6/6 57/5/5
f 12/7/7 44/14/12 43/8/8
f 26/10/9 58/133/14 57/11/5
f 13/13/11 45/19/16 44/14/12
f 27/15/13 59/21/18 58/16/14
f 14/18/15 46/23/19 45/19/16
f 28/20/17 60/28/24 59/21/18
f 15/22/1 47/30/26 46/23/19
f 2/24/20 34/134/27 33/25/21
f 29/27/23 61/35/29 60/28/24
f 16/29/25 48/37/31 47/30/26
f 3/31/3 35/39/33 34/32/27
f 30/34/28 62/41/35 61/35/29
f 17/36/30 49/43/4 48/37/31
f 4/38/32 36/45/38 35/39/33
f 31/40/34 63/47/40 62/41/35
f 18/42/36 50/49/42 49/43/4
f 5/44/37 37/51/44 36/45/38
f 32/46/39 64/52/45 63/47/40
f 19/48/41 51/135/47 50/49/42
f 6/50/43 38/57/49 37/51/44
f 1/26/22 33/25/21 64/52/45
f 20/53/46 52/59/51 51/54/47
f 7/56/48 39/61/53 38/57/49
f 21/58/50 53/63/55 52/59/51
f 8/60/52 40/65/57 39/61/53
f 22/62/54 54/67/59 53/63/55
f 9/64/56 41/69/6 40/65/57
f 23/66/58 55/71/62 54/67/59
f 10/68/60 42/73/63 41/69/6
f 24/70/61 56/74/64 55/71/62
f 11/72/2 43/136/8 42/73/63
f 25/12/10 57/11/5 56/74/64
