# Blender v2.77 (sub 0) OBJ File: ''
# www.blender.org
mtllib dragon_100f.mtl
o default
v 2.727699 4.247966 -0.245063
v 4.305477 3.718375 -1.036639
v 2.175347 0.143114 0.498007
v 1.339874 4.673607 -2.099670
v -3.565608 0.327717 -0.853083
v -2.321013 1.176923 -2.040457
v -2.372540 2.330754 0.366194
v -0.263514 0.566195 0.781454
v 1.430291 0.061915 -1.217314
v -2.760737 0.287816 0.831232
v 2.482042 1.300664 -1.963819
v 1.572242 3.244454 -1.249992
v -0.384049 5.009176 -0.673984
v -0.692025 5.678027 -2.284973
v 2.246855 0.812800 0.584074
v 0.851658 0.453665 0.576974
v -3.520643 0.561838 -1.739465
v -0.688496 6.092844 -1.400573
v 3.672816 0.002113 -0.881503
v 2.284987 2.208040 0.364507
v -1.542889 0.559472 1.085557
v -1.213842 0.081601 -2.123967
v 2.734420 3.944366 -2.021095
v 2.835299 5.128654 -1.231938
v -1.524391 6.273191 -1.546447
v -1.097553 4.687197 -1.945394
v 2.530918 2.104364 1.266559
v -0.289433 0.163557 0.116079
v -0.508534 2.242018 -0.064738
v 4.077507 1.636012 0.951743
v 1.117127 0.872073 -0.318206
v -1.273033 2.487644 -0.878031
v -2.353366 5.145845 -1.286812
v -3.537040 4.804197 0.298533
v 2.679141 1.980510 0.529299
v 3.668996 1.098578 -0.240039
v 4.076966 4.337878 -0.890597
v -4.054062 5.460436 -0.654972
v 1.050153 5.209376 -1.285439
v 1.698469 0.848324 -2.241900
v -4.294941 4.605073 0.722845
v -2.605157 2.259414 -1.378603
v -2.776304 5.554034 -1.457387
v -1.632563 4.532393 -0.188203
v -0.309045 4.023613 -1.160756
v 0.908269 4.473471 -0.318156
v -0.687007 1.265853 -1.992174
v -2.182643 4.435746 -1.290447
v -1.272680 5.944448 -0.335533
v 2.571199 1.406001 -0.494596
v -3.857850 2.346554 -0.215160
v -3.728920 5.738189 0.265829
v -3.330099 6.109259 -0.395804
v -3.856946 4.597592 -0.464544
v 3.526050 2.584831 -0.696129
v -2.205413 5.062798 -0.185833
v -2.030624 1.265674 1.162351
vt 0.4030 0.1990
vt 0.9153 0.5192
vt 0.8825 0.8443
vt 0.7238 0.5777
vt 0.4906 0.1227
vt 0.3124 0.3124
vt 0.1011 0.0505
vt 0.2341 0.0096
vt 0.6838 0.6838
vt 0.0294 0.0294
vt 0.1492 0.0196
vt 0.6206 0.1067
vt 0.6862 0.6862
vt 0.9904 0.0208
vt 0.2265 0.2265
vt 0.6431 0.0000
vt 1.0000 0.5000
vt 0.6970 0.6702
vt 0.4530 0.4125
vt 0.5667 0.3053
vt 0.9310 0.4569
vt 0.9934 0.9934
vt 0.5869 0.2818
vt 1.0000 1.0000
vt 0.1382 0.0504
vt 0.3171 0.0000
vt 0.4691 0.4386
vt 0.6833 0.0000
vt 1.0497 0.0000
vt 0.3756 0.3756
vt 0.5098 0.1417
vt 0.8407 0.0000
vt 1.0000 1.0000
vt 0.8133 0.4052
vt 0.8209 0.2237
vt 1.0000 1.0354
vt 0.2749 0.1031
vt 1.0000 0.6119
vt 1.0000 0.2454
vt 0.9284 0.8452
vt 0.5033 0.0000
vt 1.0000 0.2538
vt 0.5351 0.2800
vt 0.6496 0.0372
vt 0.9954 0.7220
vt 0.9284 0.0000
vt 0.3574 0.0431
vt 0.2857 0.2203
vt 0.0000 0.0000
vt 0.7495 0.2758
vt 0.2176 0.1120
vt 0.7663 0.0785
vt 0.1378 0.0000
vt 0.8036 0.6117
vt 0.8301 0.0073
vt 0.3462 0.2080
vt 1.0000 1.0000
vt -0.0036 -0.0036
vt 0.0434 0.0000
vt 0.1304 0.0546
vt 0.2039 0.2039
vt 0.9430 0.1042
vt 1.0000 -0.0236
vt 0.6704 0.0797
vt 0.4678 0.0000
vt 0.6360 0.6197
vt 0.0000 0.0000
vt 0.3479 0.0840
vt 0.4524 0.1457
vt 0.0000 0.0000
vt 1.0000 0.0583
vt 0.9386 0.9307
vt 0.4819 0.4819
vt 0.6412 0.6155
vt 0.6197 0.2885
vt 0.0000 0.0000
vt 0.5992 0.1864
vt 0.0882 0.0441
vt 0.0000 0.0000
vt 1.0000 0.6878
vt 0.3279 0.1753
vt 0.1838 0.1290
vt 0.8885 0.7229
vt 0.5071 0.2402
vt 1.0000 0.1096
vt 1.0000 0.0837
vt 0.9060 0.1618
vt 0.5200 0.0000
vt 1.0000 0.0218
vt 0.3218 0.0126
vt 1.0000 0.0000
vt 0.3934 0.2992
vt 0.3132 0.3344
vt 0.5956 0.0000
vt 0.2273 0.1195
vt 0.5846 0.2494
vt 1.0000 0.4918
vt 0.6924 0.6924
vt 1.0059 1.0059
vt 0.1836 0.0000
vt 1.0000 1.0000
vt 0.8395 0.0000
vt 1.0000 0.0000
vt 0.7500 0.7500
vt 0.3422 0.0335
vt 0.0833 0.0337
vt 1.0000 0.6754
vt 0.9836 0.7406
vt 0.2662 0.0000
vt 1.0000 1.0000
vt 0.3884 0.3884
vt 0.9738 0.4996
vt 1.0000 0.6747
vt 0.7475 0.2321
vt 0.2795 0.0259
vt 0.2073 0.1022
vt 0.4143 0.0000
vt -0.0573 0.0000
vt 0.7416 0.1861
vt 0.4708 0.3018
vt 0.9169 0.2017
vt 0.5834 0.5834
vt 0.0000 0.0000
vt 1.0000 0.0000
vt 1.0000 0.3864
vt 0.7818 0.2460
vt 1.0000 0.6211
vt 1.0000 0.6021
vt 0.7942 0.5207
vt 0.5405 0.4723
vt 1.0000 0.3291
vt 0.3067 0.2823
vt 1.0000 0.4533
vt 0.7021 0.7021
vt 0.6107 0.2314
vt 0.5446 0.5293
vt 0.3366 0.2948
vt 0.0660 0.0660
vt 1.0000 0.2239
vt 0.7567 0.3330
vt 0.7039 0.7039
vt 0.9396 0.7664
vt 0.6076 0.5365
vt 0.0891 0.0597
vt 0.7832 0.1596
vt 0.5815 0.5815
vt 0.9743 0.0106
vt 0.6144 0.2244
vt 0.5577 0.5577
vt 0.3982 0.3982
vt 1.0000 0.0000
vt 1.0000 1.0000
vt 0.0065 0.0065
vt 0.8406 0.7705
vt 0.9835 1.0009
vt 0.8345 0.0147
vt 1.0000 0.1734
vt 0.8749 0.8749
vt 0.6237 0.6237
vt 1.0000 0.1757
vt 0.8332 0.4403
vt 0.0000 0.0000
vt 0.8476 0.7481
vt 0.9729 0.4924
vt 0.9880 0.9880
vt 1.0000 0.1152
vt 0.9800 0.8781
vt 0.7612 0.2029
vt 1.0000 0.8921
vt 0.3798 0.0000
vt 1.0000 0.6715
vt 0.9248 0.9073
vt 0.6196 0.2473
vt 1.0000 0.9090
vt 0.4795 0.4409
vt 0.0000 0.0000
vt 1.0000 0.0000
vt 0.9797 0.9688
vt 0.9514 0.3818
vt 0.8390 0.0000
vt 1.0000 0.4827
vt 0.8558 0.7696
vt 1.0000 0.1952
vt 1.0000 0.1721
vt 0.5000 0.5000
vt 0.8335 0.4040
vt 1.0000 1.0000
vt 0.8390 0.1869
vt 0.2519 0.0000
vt 0.4400 0.4376
vt 0.8946 0.2731
vt 0.7473 0.3498
vt 0.9791 0.7016
vt 0.2668 0.0790
vt 1.0000 0.4224
vt 0.9842 0.9842
vt 0.7683 0.4074
vt 0.5775 0.2915
vt 0.9450 0.9237
vt 0.6376 0.0615
vt 0.6826 0.3442
vt 0.7910 0.7910
vt 0.7191 0.3162
vt 0.4600 0.2793
vt 0.9043 0.7975
vt 0.0883 0.0346
vt 0.9844 0.1123
vt 0.6115 0.0706
vt 0.7440 0.1617
vt 0.7262 0.0000
vt 0.7293 0.2788
vt 0.6128 0.0000
vt 0.5000 0.0000
vt 0.9219 0.8566
vt 0.5928 0.5928
vt 0.5605 0.0522
vt 0.0890 0.0890
vt 0.8767 0.8256
vt 0.4544 0.0000
vt 0.6369 0.2098
vt 0.2316 0.2316
vt 1.0000 1.0327
vt 0.9163 0.3267
vt 0.1780 0.1780
vt 0.5820 0.0000
vt 1.0000 0.4368
vt 0.5221 0.4083
vt 0.2146 0.0451
vt 0.7318 0.7318
vt 0.4481 0.0000
vt 0.5149 0.0000
vt 0.7478 0.3745
vt 0.4888 0.4888
vt 0.7453 0.1349
vt 1.0000 1.0000
vt 0.7267 0.7267
vt 0.5572 0.0000
vt 0.6894 0.3048
vt 0.8878 0.5715
vt 0.4850 0.0000
vt 0.2913 0.2913
vt 0.2670 0.2670
vt 1.0000 1.0115
vt 0.9019 0.5988
vt 0.8500 0.0000
vt 0.1887 0.0892
vt 0.8945 0.8945
vt 0.5422 0.3898
vt 0.5083 0.0000
vt 0.5581 0.5017
vt 0.7763 0.3786
vt 1.0000 0.0942
vt 1.0000 1.0000
vt 0.0000 0.0000
vt 1.0000 0.3146
vt 0.8151 0.4220
vt 0.6963 0.0148
vt 0.3416 0.0000
vt 1.0000 1.0000
vt 0.1198 0.0000
vt 1.0000 0.9695
vt 0.3403 0.0876
vt 0.9278 0.8018
vt 0.5363 0.2635
vt 1.0000 0.1051
vt 0.6840 0.0866
vt 0.8932 0.3870
vt 1.0000 0.3750
vt 0.0000 0.0000
vt 0.4773 0.3705
vt 0.0730 0.0730
vt 0.7260 0.5608
vt 1.0000 0.5341
vt 0.4582 0.4131
vt 0.6089 0.4430
vt 0.6253 0.3713
vt 0.6058 0.3430
vt 0.5569 0.0000
vt 0.5983 0.5951
vt 0.2748 0.1488
vt 1.0000 0.0000
vt 0.5919 0.5916
vt 0.0503 0.0503
vt 0.8009 0.7486
vt 1.0000 0.1362
vt 0.8656 0.8656
vt 0.4956 0.4577
vt 0.8032 0.8032
vt 0.7252 0.0000
vt 0.9591 0.1631
vt 0.6808 0.1603
vt 0.3891 0.0000
vt 0.9419 0.0836
vt 0.6600 0.6521
vt 0.4353 0.2834
vt 1.0000 0.0000
vt 0.7520 0.1223
vt 0.4271 0.4271
vt 1.0000 0.9349
vt 0.6550 0.2453
vt 0.1350 0.1350
vt 0.7878 0.6395
vt 0.6481 0.5856
vt 0.8181 0.8181
vt 0.5601 0.4503
vt 0.7390 0.0907
vt 0.5772 0.3981
vt 0.8648 0.3340
vt 0.9302 0.1273
vt 0.9409 0.0000
vt 0.7293 0.5000
vt 1.0000 0.3763
vt 0.5129 0.0000
vt 0.7237 0.2001
vt 1.0000 0.7214
vt 0.2672 0.0000
vt 0.0422 0.0000
vt -0.0061 -0.0023
vt 0.6429 0.6296
vt 0.9925 0.2625
vt 0.6843 0.2377
vt 0.4543 0.4543
vt 0.8942 0.4779
vt 0.2276 0.0922
vt 0.8036 0.6611
vt 0.3430 0.0652
vt -0.0048 -0.0048
vt 0.7614 0.0299
vt 1.0000 0.0000
vt 0.7407 0.1383
vt 0.9527 0.9527
vt 0.7649 0.0281
vt 0.7753 0.4031
vt 0.2353 0.2353
vt 0.8945 0.7813
vt 0.9187 0.9187
vt 0.6709 0.0000
vt 0.6630 0.3260
vt 0.7673 0.4998
vn -0.7988 -0.5867 -0.1329
vn 0.1998 -0.6890 -0.6967
vn -0.4565 -0.6018 0.6553
vn -0.3110 0.9504 -0.0094
vn 0.0146 0.9044 -0.4265
vn -0.5302 0.0354 -0.8471
vn -0.1339 0.1117 0.9847
vn -0.8867 -0.1910 0.4212
vn -0.0646 -0.7694 0.6354
vn -0.3850 -0.2911 -0.8758
vn -0.9773 -0.0317 0.2093
vn -0.5170 -0.6839 -0.5148
vn -0.0544 0.9412 -0.3335
vn 0.2267 0.4226 0.8775
vn 0.8898 0.1957 -0.4122
vn -0.0143 0.9278 0.3727
vn -0.8794 -0.1422 -0.4544
vn -0.7686 -0.0668 0.6362
vn -0.0094 0.4816 0.8763
vn 0.2148 0.7934 -0.5695
vn -0.0552 0.4029 0.9136
vn -0.9356 0.3063 0.1754
vn -0.6704 -0.1587 -0.7249
vn 0.4249 -0.2344 -0.8744
vn 0.0813 0.1775 -0.9808
vn -0.1113 0.3622 -0.9254
vn 0.5029 0.2935 0.8130
vn 0.6903 -0.6632 -0.2894
vn 0.9258 0.0988 -0.3649
vn -0.7980 0.5952 -0.0944
vn -0.1209 0.3314 0.9357
vn 0.3531 0.5677 0.7436
vn 0.7087 0.6260 -0.3255
vn 0.5916 0.6954 0.4079
vn 0.2113 0.1409 -0.9672
vn 0.7615 0.6273 0.1630
vn -0.6077 -0.4732 -0.6379
vn 0.5807 -0.5365 0.6123
vn 0.0981 0.2883 0.9525
vn -0.2596 0.2981 -0.9186
vn -0.4061 0.7734 -0.4868
vn -0.3459 0.2697 -0.8987
vn 0.6141 -0.1188 -0.7803
vn 0.7272 -0.2068 0.6546
vn 0.1113 -0.4694 0.8760
vn -0.9313 -0.2891 -0.2217
vn 0.0529 0.1401 0.9887
vn 0.9629 -0.0135 0.2696
vn -0.8879 0.0290 -0.4591
vn 0.0748 0.1171 0.9903
vn 0.3566 0.9293 -0.0964
vn 0.5988 -0.7770 0.1944
vn -0.1551 0.4060 0.9006
vn -0.5994 -0.7539 -0.2690
vn -0.5812 0.0311 0.8131
vn -0.3148 0.9487 -0.0287
vn 0.8103 0.2281 -0.5398
usemtl None
s 1
f 5/1/1 22/2/2 10/3/3
f 53/4/4 25/5/5 43/6/6
f 15/7/7 16/8/8 3/9/9
f 40/10/10 31/11/11 12/12/12
f 20/13/13 27/14/14 35/15/15
f 20/16/13 31/17/11 27/18/14
f 34/19/16 54/20/17 41/21/18
f 29/22/19 32/23/20 7/24/21
f 51/25/22 48/26/23 26/27/24
f 12/28/12 47/29/25 4/30/26
f 30/31/27 19/32/28 2/33/29
f 32/34/20 29/35/19 45/36/30
f 57/37/31 7/38/21 10/39/3
f 25/40/5 49/41/32 18/42/33
f 20/43/13 50/44/34 31/45/11
f 2/46/29 23/47/35 37/48/36
f 54/49/17 33/50/37 48/51/23
f 55/52/38 37/53/36 1/54/39
f 5/55/1 51/56/22 6/57/40
f 20/58/13 35/59/15 15/60/7
f 31/61/11 1/62/39 12/63/12
f 50/64/34 30/65/27 36/66/41
f 42/67/42 32/68/20 6/69/40
f 33/70/37 43/71/6 26/72/24
f 47/73/25 45/74/30 4/75/26
f 50/76/34 36/77/41 11/78/43
f 8/79/44 29/80/19 7/81/21
f 30/82/27 50/64/34 15/83/7
f 21/84/45 8/85/44 57/86/31
f 50/87/34 11/88/43 55/89/38
f 53/90/4 43/91/6 38/92/46
f 56/93/47 13/94/48 49/95/32
f 17/96/49 22/97/2 5/98/1
f 5/99/1 10/100/3 51/101/22
f 37/102/36 55/103/38 36/104/41
f 44/105/50 41/106/18 54/107/17
f 57/108/31 10/109/3 21/110/45
f 50/111/34 1/112/39 31/113/11
f 23/114/35 24/115/51 37/116/36
f 18/117/33 26/118/24 25/119/5
f 28/120/52 12/121/12 46/122/53
f 30/123/27 37/124/36 36/125/41
f 9/126/54 31/127/11 40/128/10
f 52/129/55 56/130/47 49/131/32
f 41/132/18 44/133/50 34/134/16
f 7/135/21 44/136/50 51/137/22
f 13/138/48 56/139/47 44/140/50
f 13/141/48 44/142/50 7/143/21
f 6/144/40 17/145/49 5/146/1
f 10/147/3 28/148/52 21/149/45
f 29/150/19 8/151/44 28/152/52
f 42/153/42 26/154/24 32/155/20
f 54/156/17 56/157/47 33/158/37
f 47/159/25 6/160/40 32/161/20
f 26/162/24 42/163/42 51/164/22
f 39/165/56 46/166/53 24/167/51
f 13/141/48 7/168/21 32/169/20
f 50/170/34 55/171/38 1/172/39
f 3/173/9 31/174/11 9/175/54
f 21/176/45 28/177/52 8/178/44
f 49/179/32 25/180/5 53/181/4
f 33/182/37 38/183/46 43/184/6
f 45/185/30 29/186/19 46/187/53
f 56/188/47 54/189/17 34/190/16
f 57/191/31 8/192/44 7/193/21
f 47/194/25 12/195/12 22/196/2
f 2/197/29 36/198/41 55/199/38
f 27/200/14 31/201/11 15/202/7
f 19/203/28 9/204/54 40/205/10
f 39/206/56 45/207/30 46/208/53
f 13/209/48 32/210/20 18/211/33
f 48/212/23 51/213/22 44/214/50
f 9/215/54 19/216/28 3/217/9
f 35/218/15 27/219/14 15/220/7
f 11/221/43 36/222/41 19/223/28
f 12/224/12 4/225/26 23/226/35
f 40/227/10 11/228/43 19/229/28
f 3/230/9 19/231/28 30/232/27
f 14/233/57 26/234/24 43/235/6
f 28/236/52 22/237/2 12/238/12
f 23/239/35 11/240/43 40/241/10
f 15/242/7 3/243/9 30/244/27
f 55/245/38 11/246/43 2/247/29
f 6/248/40 22/249/2 17/250/49
f 40/251/10 12/252/12 23/253/35
f 38/254/46 52/255/55 53/256/4
f 36/257/41 2/258/29 19/259/28
f 4/260/26 39/261/56 24/262/51
f 50/263/34 20/264/13 15/265/7
f 45/266/30 39/267/56 4/268/26
f 31/269/11 16/270/8 15/271/7
f 33/272/37 26/273/24 48/274/23
f 28/275/52 10/276/3 22/277/2
f 10/278/3 7/38/21 51/279/22
f 37/280/36 24/281/51 1/282/39
f 1/283/39 24/284/51 46/285/53
f 32/286/20 26/287/24 18/288/33
f 28/289/52 46/290/53 29/291/19
f 52/292/55 33/293/37 56/294/47
f 49/295/32 13/296/48 18/297/33
f 54/298/17 48/299/23 44/300/50
f 43/301/6 25/302/5 14/303/57
f 22/304/2 6/305/40 47/306/25
f 34/307/16 44/308/50 56/309/47
f 52/310/55 38/311/46 33/312/37
f 46/313/53 12/314/12 1/315/39
f 37/316/36 30/317/27 2/318/29
f 32/319/20 45/320/30 47/321/25
f 23/322/35 4/323/26 24/324/51
f 52/325/55 49/326/32 53/327/4
f 2/328/29 11/329/43 23/330/35
f 31/331/11 3/332/9 16/333/8
f 6/334/40 51/335/22 42/336/42
f 25/337/5 26/338/24 14/339/57
