# Blender v2.75 (sub 0) OBJ File: ''
# www.blender.org
mtllib flag.mtl
o Cylinder
v 0.000000 0.000000 -0.100000
v 0.000000 2.000000 -0.100000
v 0.019509 0.000000 -0.098079
v 0.019509 2.000000 -0.098079
v 0.038268 0.000000 -0.092388
v 0.038268 2.000000 -0.092388
v 0.055557 0.000000 -0.083147
v 0.055557 2.000000 -0.083147
v 0.070711 0.000000 -0.070711
v 0.070711 2.000000 -0.070711
v 0.083147 0.000000 -0.055557
v 0.083147 2.000000 -0.055557
v 0.092388 0.000000 -0.038268
v 0.092388 2.000000 -0.038268
v 0.098079 0.000000 -0.019509
v 0.098079 2.000000 -0.019509
v 0.100000 0.000000 -0.000000
v 0.100000 2.000000 -0.000000
v 0.098079 0.000000 0.019509
v 0.098079 2.000000 0.019509
v 0.092388 0.000000 0.038268
v 0.092388 2.000000 0.038268
v 0.083147 0.000000 0.055557
v 0.083147 2.000000 0.055557
v 0.070711 0.000000 0.070711
v 0.070711 2.000000 0.070711
v 0.055557 0.000000 0.083147
v 0.055557 2.000000 0.083147
v 0.038268 0.000000 0.092388
v 0.038268 2.000000 0.092388
v 0.019509 0.000000 0.098079
v 0.019509 2.000000 0.098079
v -0.000000 0.000000 0.100000
v -0.000000 2.000000 0.100000
v -0.019509 0.000000 0.098079
v -0.019509 2.000000 0.098079
v -0.038268 0.000000 0.092388
v -0.038268 2.000000 0.092388
v -0.055557 0.000000 0.083147
v -0.055557 2.000000 0.083147
v -0.070711 0.000000 0.070711
v -0.070711 2.000000 0.070711
v -0.083147 0.000000 0.055557
v -0.083147 2.000000 0.055557
v -0.092388 0.000000 0.038268
v -0.092388 2.000000 0.038268
v -0.098079 0.000000 0.019509
v -0.098079 2.000000 0.019509
v -0.100000 0.000000 -0.000000
v -0.100000 2.000000 -0.000000
v -0.098079 0.000000 -0.019509
v -0.098079 2.000000 -0.019509
v -0.092388 0.000000 -0.038268
v -0.092388 2.000000 -0.038268
v -0.083147 0.000000 -0.055557
v -0.083147 2.000000 -0.055557
v -0.070711 0.000000 -0.070711
v -0.070711 2.000000 -0.070711
v -0.055557 0.000000 -0.083147
v -0.055557 2.000000 -0.083147
v -0.038268 0.000000 -0.092388
v -0.038268 2.000000 -0.092388
v -0.019509 0.000000 -0.098079
v -0.019509 2.000000 -0.098079
v 1.100000 1.600000 -0.075000
v 1.100000 1.600000 0.075000
v 0.070711 2.000000 -0.070711
v 1.100000 1.600000 -0.075000
v 0.000000 1.324415 -0.100000
v 0.019509 1.324415 -0.098079
v 0.038268 1.324415 -0.092388
v 0.055557 1.324415 -0.083147
v 0.070711 1.324415 -0.070711
v 0.083147 1.324415 -0.055557
v 0.092388 1.324415 -0.038268
v 0.098079 1.324415 -0.019509
v 0.100000 1.324415 -0.000000
v 0.098079 1.324415 0.019509
v 0.092388 1.324415 0.038268
v 0.083147 1.324415 0.055557
v 0.070711 1.324415 0.070711
v 0.055557 1.324415 0.083147
v 0.038268 1.324415 0.092388
v 0.019509 1.324415 0.098079
v -0.000000 1.324415 0.100000
v -0.019509 1.324415 0.098079
v -0.038268 1.324415 0.092388
v -0.055557 1.324415 0.083147
v -0.070711 1.324415 0.070711
v -0.083147 1.324415 0.055557
v -0.092388 1.324415 0.038268
v -0.098079 1.324415 0.019509
v -0.100000 1.324415 -0.000000
v -0.098079 1.324415 -0.019509
v -0.092388 1.324415 -0.038268
v -0.083147 1.324415 -0.055557
v -0.070711 1.324415 -0.070711
v -0.055557 1.324415 -0.083147
v -0.038268 1.324415 -0.092388
v -0.019509 1.324415 -0.098079
vt 0.842883 0.165787
vt 0.866773 0.165787
vt 0.866773 0.222060
vt 0.889744 0.165787
vt 0.889744 0.222060
vt 0.910912 0.165787
vt 0.910912 0.222060
vt 0.929465 0.165787
vt 0.929465 0.222060
vt 0.756277 0.498966
vt 0.776238 0.498966
vt 0.776238 0.555239
vt 0.798417 0.498966
vt 0.798417 0.555239
vt 0.821963 0.498966
vt 0.821963 0.555239
vt 0.845969 0.498966
vt 0.845969 0.555239
vt 0.869515 0.498966
vt 0.869515 0.555239
vt 0.891694 0.498966
vt 0.891694 0.555239
vt 0.911655 0.498966
vt 0.911655 0.555239
vt 0.928631 0.498966
vt 0.928631 0.555239
vt 0.244925 0.117335
vt 0.244925 0.103846
vt 0.327658 0.103846
vt 0.244925 0.088821
vt 0.327658 0.088821
vt 0.244925 0.072838
vt 0.327658 0.072838
vt 0.244925 0.056510
vt 0.327658 0.056510
vt 0.244925 0.040465
vt 0.327658 0.040465
vt 0.244925 0.025320
vt 0.327658 0.025320
vt 0.244925 0.011657
vt 0.327658 0.011657
vt 0.244925 0.000000
vt 0.327658 0.000000
vt 0.756277 0.332377
vt 0.776238 0.332377
vt 0.776238 0.388649
vt 0.798417 0.332377
vt 0.798417 0.388649
vt 0.821963 0.332377
vt 0.821963 0.388649
vt 0.845969 0.332377
vt 0.845969 0.388649
vt 0.869515 0.332377
vt 0.869515 0.388649
vt 0.891694 0.332377
vt 0.891694 0.388649
vt 0.911655 0.332377
vt 0.911655 0.388649
vt 0.928631 0.332377
vt 0.928631 0.388649
vt 0.756277 0.165787
vt 0.774839 0.165787
vt 0.774839 0.222060
vt 0.796015 0.165787
vt 0.796015 0.222060
vt 0.002353 0.099525
vt 0.020639 0.037012
vt 0.242572 0.067032
vt 0.818991 0.165787
vt 0.842883 0.222060
vt 0.818991 0.222060
vt 0.866134 0.165787
vt 0.756277 0.074729
vt 0.890143 0.000000
vt 0.818991 0.332377
vt 0.842883 0.332377
vt 0.796015 0.332377
vt 0.756277 0.222060
vt 0.774839 0.332377
vt 0.756277 0.388649
vt 0.489849 0.000000
vt 0.489849 0.011657
vt 0.489849 0.025320
vt 0.489850 0.040465
vt 0.489850 0.056510
vt 0.489850 0.072838
vt 0.489849 0.088821
vt 0.327658 0.117335
vt 0.489850 0.103846
vt 0.928631 0.665555
vt 0.911655 0.665555
vt 0.891694 0.665555
vt 0.869515 0.665555
vt 0.845969 0.665555
vt 0.821963 0.665555
vt 0.798417 0.665555
vt 0.756277 0.555239
vt 0.776238 0.665555
vt 0.929465 0.332377
vt 0.910912 0.332377
vt 0.889744 0.332376
vt 0.866773 0.332377
vt 0.122462 0.166557
vt 0.214310 1.000000
vt 0.030616 1.000000
vt 0.581696 0.833183
vt 0.557805 0.834783
vt 0.722528 0.000000
vt 0.756277 0.857345
vt 0.673543 0.857345
vt 0.293910 0.971003
vt 0.020639 0.129545
vt 0.009322 0.115148
vt 0.054426 0.152522
vt 0.035868 0.142165
vt 0.146354 0.164957
vt 0.075598 0.160218
vt 0.098571 0.164957
vt 0.190499 0.152522
vt 0.169327 0.160218
vt 0.209056 0.142165
vt 0.242572 0.099525
vt 0.235603 0.115148
vt 0.224286 0.129545
vt 0.244925 0.083278
vt 0.224286 0.037011
vt 0.235603 0.051409
vt 0.190499 0.014035
vt 0.209056 0.024392
vt 0.146353 0.001600
vt 0.169327 0.006339
vt 0.098571 0.001600
vt 0.122462 0.000000
vt 0.075598 0.006339
vt 0.035868 0.024392
vt 0.054426 0.014035
vt 0.002353 0.067032
vt 0.009322 0.051409
vt 0.000000 0.083278
vt 0.955819 0.147281
vt 0.890138 0.165787
vt 0.935859 0.156353
vt 0.913682 0.162602
vt 0.986130 0.122158
vt 0.972793 0.135735
vt 1.000000 0.091058
vt 0.995316 0.107073
vt 0.972796 0.030052
vt 1.000000 0.074729
vt 0.986132 0.043629
vt 0.995317 0.058714
vt 0.935863 0.009434
vt 0.955822 0.018506
vt 0.913686 0.003186
vt 0.800458 0.018506
vt 0.866138 0.000000
vt 0.820417 0.009434
vt 0.842595 0.003186
vt 0.770147 0.043629
vt 0.783484 0.030052
vt 0.760961 0.058714
vt 0.760959 0.107073
vt 0.756277 0.091058
vt 0.783481 0.135735
vt 0.770145 0.122158
vt 0.820413 0.156353
vt 0.800454 0.147281
vt 0.842591 0.162602
vt 0.489850 0.117335
vt 0.756277 0.665555
vt 0.673543 0.000000
vt 0.668290 0.857577
vt 0.649733 0.847219
vt 0.513660 0.847219
vt 0.495102 0.857577
vt 0.628561 0.839523
vt 0.534832 0.839523
vt 0.605588 0.834783
vn 0.098000 0.000000 -0.995200
vn 0.290300 0.000000 -0.956900
vn 0.471400 0.000000 -0.881900
vn 0.634400 0.000000 -0.773000
vn 0.773000 0.000000 -0.634400
vn 0.881900 0.000000 -0.471400
vn 0.956900 0.000000 -0.290300
vn 0.995200 0.000000 -0.098000
vn 0.995200 0.000000 0.098000
vn 0.956900 0.000000 0.290300
vn 0.881900 0.000000 0.471400
vn 0.773000 0.000000 0.634400
vn 0.634400 0.000000 0.773000
vn 0.471400 0.000000 0.881900
vn 0.290300 0.000000 0.956900
vn 0.098000 0.000000 0.995200
vn -0.098000 0.000000 0.995200
vn -0.290300 0.000000 0.956900
vn -0.471400 0.000000 0.881900
vn -0.634400 0.000000 0.773000
vn -0.773000 0.000000 0.634400
vn -0.881900 0.000000 0.471400
vn -0.956900 0.000000 0.290300
vn -0.995200 0.000000 0.098000
vn -0.995200 0.000000 -0.098000
vn -0.956900 0.000000 -0.290300
vn -0.881900 0.000000 -0.471400
vn -0.773000 0.000000 -0.634400
vn -0.634400 0.000000 -0.773000
vn -0.471400 0.000000 -0.881900
vn 0.000000 1.000000 -0.000000
vn -0.098000 0.000000 -0.995200
vn -0.290300 0.000000 -0.956900
vn 0.000000 -1.000000 0.000000
vn 0.371400 0.928500 0.000000
vn 0.263800 -0.964200 -0.026000
vn -0.004200 0.000000 -1.000000
vn -0.004200 0.000000 1.000000
vn 0.000000 1.000000 -0.000100
vn 0.000000 1.000000 0.000100
vn 0.346300 0.894100 -0.284200
vn 0.346300 0.894100 0.284200
vn 0.356200 0.914800 -0.190400
vn 0.356200 0.914800 0.190400
vn 0.363200 0.925200 -0.110200
vn 0.363200 0.925200 0.110200
vn 0.368800 0.928800 -0.036300
vn 0.368800 0.928800 0.036300
vn 0.265700 -0.964100 0.000000
vn 0.252200 -0.945300 0.207000
vn 0.252200 -0.945300 -0.207000
vn 0.256700 -0.956700 0.137200
vn 0.256700 -0.956700 -0.137200
vn 0.260300 -0.962300 0.079000
vn 0.260300 -0.962300 -0.079000
vn 0.263800 -0.964200 0.026000
usemtl None
s off
f 2/1/1 4/2/1 70/3/1
f 4/2/2 6/4/2 71/5/2
f 6/4/3 8/6/3 72/7/3
f 8/6/4 10/8/4 73/9/4
f 10/10/5 12/11/5 74/12/5
f 12/11/6 14/13/6 75/14/6
f 14/13/7 16/15/7 76/16/7
f 16/15/8 18/17/8 77/18/8
f 18/17/9 20/19/9 78/20/9
f 20/19/10 22/21/10 79/22/10
f 22/21/11 24/23/11 80/24/11
f 24/23/12 26/25/12 81/26/12
f 26/27/13 28/28/13 82/29/13
f 28/28/14 30/30/14 83/31/14
f 30/30/15 32/32/15 84/33/15
f 32/32/16 34/34/16 85/35/16
f 34/34/17 36/36/17 86/37/17
f 36/36/18 38/38/18 87/39/18
f 38/38/19 40/40/19 88/41/19
f 40/40/20 42/42/20 89/43/20
f 42/44/21 44/45/21 90/46/21
f 44/45/22 46/47/22 91/48/22
f 46/47/23 48/49/23 92/50/23
f 48/49/24 50/51/24 93/52/24
f 50/51/25 52/53/25 94/54/25
f 52/53/26 54/55/26 95/56/26
f 54/55/27 56/57/27 96/58/27
f 56/57/28 58/59/28 97/60/28
f 58/61/29 60/62/29 98/63/29
f 60/62/30 62/64/30 99/65/30
f 4/66/31 60/67/31 36/68/31
f 64/69/32 2/1/32 69/70/32
f 62/64/33 64/69/33 100/71/33
f 1/72/34 17/73/34 33/74/34
f 99/65/33 100/71/33 63/75/33
f 100/71/32 69/70/32 1/76/32
f 98/63/30 99/65/30 61/77/30
f 97/78/29 98/63/29 59/79/29
f 96/58/28 97/60/28 57/25/28
f 95/56/27 96/58/27 55/23/27
f 94/54/26 95/56/26 53/21/26
f 93/52/25 94/54/25 51/19/25
f 92/50/24 93/52/24 49/17/24
f 91/48/23 92/50/23 47/15/23
f 90/46/22 91/48/22 45/13/22
f 89/80/21 90/46/21 43/11/21
f 88/41/20 89/43/20 41/81/20
f 87/39/19 88/41/19 39/82/19
f 86/37/18 87/39/18 37/83/18
f 85/35/17 86/37/17 35/84/17
f 84/33/16 85/35/16 33/85/16
f 83/31/15 84/33/15 31/86/15
f 82/29/14 83/31/14 29/87/14
f 81/88/13 82/29/13 27/89/13
f 80/24/12 81/26/12 25/90/12
f 79/22/11 80/24/11 23/91/11
f 78/20/10 79/22/10 21/92/10
f 77/18/9 78/20/9 19/93/9
f 76/16/8 77/18/8 17/94/8
f 75/14/7 76/16/7 15/95/7
f 74/12/6 75/14/6 13/96/6
f 73/97/5 74/12/5 11/98/5
f 72/7/4 73/9/4 9/99/4
f 71/5/3 72/7/3 7/100/3
f 70/3/2 71/5/2 5/101/2
f 69/70/1 70/3/1 3/102/1
f 18/103/35 66/104/35 68/105/35
f 68/81/36 77/106/36 76/107/36
f 68/108/37 73/109/37 67/110/37
f 26/27/38 81/88/38 66/111/38
f 69/70/1 2/1/1 70/3/1
f 70/3/2 4/2/2 71/5/2
f 71/5/3 6/4/3 72/7/3
f 72/7/4 8/6/4 73/9/4
f 73/97/5 10/10/5 74/12/5
f 74/12/6 12/11/6 75/14/6
f 75/14/7 14/13/7 76/16/7
f 76/16/8 16/15/8 77/18/8
f 77/18/9 18/17/9 78/20/9
f 78/20/10 20/19/10 79/22/10
f 79/22/11 22/21/11 80/24/11
f 80/24/12 24/23/12 81/26/12
f 81/88/13 26/27/13 82/29/13
f 82/29/14 28/28/14 83/31/14
f 83/31/15 30/30/15 84/33/15
f 84/33/16 32/32/16 85/35/16
f 85/35/17 34/34/17 86/37/17
f 86/37/18 36/36/18 87/39/18
f 87/39/19 38/38/19 88/41/19
f 88/41/20 40/40/20 89/43/20
f 89/80/21 42/44/21 90/46/21
f 90/46/22 44/45/22 91/48/22
f 91/48/23 46/47/23 92/50/23
f 92/50/24 48/49/24 93/52/24
f 93/52/25 50/51/25 94/54/25
f 94/54/26 52/53/26 95/56/26
f 95/56/27 54/55/27 96/58/27
f 96/58/28 56/57/28 97/60/28
f 97/78/29 58/61/29 98/63/29
f 98/63/30 60/62/30 99/65/30
f 8/112/31 6/113/31 4/66/31
f 12/114/31 10/115/31 8/112/31
f 20/116/31 14/117/31 12/114/31
f 20/116/31 18/103/31 16/118/31
f 24/119/31 22/120/31 20/116/31
f 20/116/31 26/121/31 24/119/31
f 32/122/39 30/123/39 28/124/39
f 36/68/39 34/125/39 32/122/39
f 40/126/31 38/127/31 36/68/31
f 44/128/31 42/129/31 40/126/31
f 48/130/31 46/131/31 44/128/31
f 52/132/31 50/133/31 48/130/31
f 60/67/31 54/134/31 52/132/31
f 60/67/31 58/135/31 56/136/31
f 64/137/39 62/138/39 60/67/39
f 4/66/39 2/139/39 64/137/39
f 20/116/31 8/112/31 4/66/31
f 20/116/31 16/118/31 14/117/31
f 28/124/31 26/121/31 20/116/31
f 36/68/31 32/122/31 28/124/31
f 44/128/31 40/126/31 36/68/31
f 36/68/31 48/130/31 44/128/31
f 60/67/31 56/136/31 54/134/31
f 4/66/40 64/137/40 60/67/40
f 20/116/31 12/114/31 8/112/31
f 4/66/31 28/124/31 20/116/31
f 52/132/31 48/130/31 36/68/31
f 36/68/31 60/67/31 52/132/31
f 36/68/31 28/124/31 4/66/31
f 100/71/32 64/69/32 69/70/32
f 99/65/33 62/64/33 100/71/33
f 57/140/34 63/141/34 1/72/34
f 57/140/34 59/142/34 61/143/34
f 53/144/34 55/145/34 57/140/34
f 49/146/34 51/147/34 53/144/34
f 41/148/34 47/149/34 49/146/34
f 41/148/34 43/150/34 45/151/34
f 37/152/34 39/153/34 41/148/34
f 33/74/34 35/154/34 37/152/34
f 25/155/34 31/156/34 33/74/34
f 25/155/34 27/157/34 29/158/34
f 21/159/34 23/160/34 25/155/34
f 17/73/34 19/161/34 21/159/34
f 13/162/34 15/163/34 17/73/34
f 9/164/34 11/165/34 13/162/34
f 5/166/34 7/167/34 9/164/34
f 1/72/34 3/168/34 5/166/34
f 57/140/34 61/143/34 63/141/34
f 49/146/34 53/144/34 57/140/34
f 41/148/34 45/151/34 47/149/34
f 33/74/34 37/152/34 41/148/34
f 25/155/34 29/158/34 31/156/34
f 33/74/34 21/159/34 25/155/34
f 9/164/34 13/162/34 17/73/34
f 17/73/34 5/166/34 9/164/34
f 49/146/34 57/140/34 1/72/34
f 1/72/34 41/148/34 49/146/34
f 17/73/34 21/159/34 33/74/34
f 1/72/34 5/166/34 17/73/34
f 33/74/34 41/148/34 1/72/34
f 61/77/33 99/65/33 63/75/33
f 63/75/32 100/71/32 1/76/32
f 59/79/30 98/63/30 61/77/30
f 57/44/29 97/78/29 59/79/29
f 55/23/28 96/58/28 57/25/28
f 53/21/27 95/56/27 55/23/27
f 51/19/26 94/54/26 53/21/26
f 49/17/25 93/52/25 51/19/25
f 47/15/24 92/50/24 49/17/24
f 45/13/23 91/48/23 47/15/23
f 43/11/22 90/46/22 45/13/22
f 41/10/21 89/80/21 43/11/21
f 39/82/20 88/41/20 41/81/20
f 37/83/19 87/39/19 39/82/19
f 35/84/18 86/37/18 37/83/18
f 33/85/17 85/35/17 35/84/17
f 31/86/16 84/33/16 33/85/16
f 29/87/15 83/31/15 31/86/15
f 27/89/14 82/29/14 29/87/14
f 25/169/13 81/88/13 27/89/13
f 23/91/12 80/24/12 25/90/12
f 21/92/11 79/22/11 23/91/11
f 19/93/10 78/20/10 21/92/10
f 17/94/9 77/18/9 19/93/9
f 15/95/8 76/16/8 17/94/8
f 13/96/7 75/14/7 15/95/7
f 11/98/6 74/12/6 13/96/6
f 9/170/5 73/97/5 11/98/5
f 7/100/4 72/7/4 9/99/4
f 5/101/3 71/5/3 7/100/3
f 3/102/2 70/3/2 5/101/2
f 1/76/1 69/70/1 3/102/1
f 68/105/41 67/115/41 12/114/41
f 24/119/42 26/121/42 66/104/42
f 68/105/43 12/114/43 14/117/43
f 22/120/44 24/119/44 66/104/44
f 68/105/45 14/117/45 16/118/45
f 20/116/46 22/120/46 66/104/46
f 68/105/47 16/118/47 18/103/47
f 18/103/48 20/116/48 66/104/48
f 77/106/49 68/81/49 66/171/49
f 66/171/50 81/172/50 80/173/50
f 74/174/51 73/175/51 68/81/51
f 66/171/52 80/173/52 79/176/52
f 75/177/53 74/174/53 68/81/53
f 66/171/54 79/176/54 78/178/54
f 76/107/55 75/177/55 68/81/55
f 66/171/56 78/178/56 77/106/56
l 10 67
l 65 68
