# Blender v2.77 (sub 0) OBJ File: ''
# www.blender.org
mtllib holeObstacle.mtl
o Cylinder
v 0.000000 -4.000000 -3.500000
v 0.000000 0.020000 -3.500000
v 0.682816 0.020000 -3.432748
v 0.682816 -4.000000 -3.432748
v 1.339392 -4.000000 -3.233578
v 1.944496 -4.000000 -2.910144
v 2.474874 -4.000000 -2.474874
v 2.910144 -4.000000 -1.944496
v 3.233578 -4.000000 -1.339392
v 3.432748 -4.000000 -0.682816
v 3.500000 -4.000000 -0.000000
v 3.432749 -4.000000 0.682816
v 3.233579 -4.000000 1.339392
v 2.910144 -4.000000 1.944496
v 2.474874 -4.000000 2.474874
v 1.944496 -4.000000 2.910144
v 1.339392 -4.000000 3.233579
v 0.682815 -4.000000 3.432749
v -0.000001 -4.000000 3.500000
v -0.682818 -4.000000 3.432748
v -1.339394 -4.000000 3.233578
v -1.944498 -4.000000 2.910142
v -2.474875 -4.000000 2.474872
v -2.910145 -4.000000 1.944494
v -3.233580 -4.000000 1.339389
v -3.432749 -4.000000 0.682813
v -3.500000 -4.000000 -0.000003
v -3.432748 -4.000000 -0.682820
v -3.233577 -4.000000 -1.339396
v -2.910141 -4.000000 -1.944499
v -2.474871 -4.000000 -2.474877
v -1.944492 -4.000000 -2.910146
v -1.339387 -4.000000 -3.233581
v -0.682811 -4.000000 -3.432750
v -0.682811 0.020000 -3.432750
v -0.000001 0.020000 3.500000
v -0.000001 0.020000 2.000000
v -0.390181 0.020000 1.961571
v -0.765368 0.020000 1.847759
v -1.111141 0.020000 1.662939
v -1.414214 0.020000 1.414213
v -1.662940 0.020000 1.111139
v -1.847760 0.020000 0.765365
v -1.961571 0.020000 0.390179
v -2.000000 0.020000 -0.000002
v -1.961570 0.020000 -0.390183
v -1.847758 0.020000 -0.765369
v -1.662938 0.020000 -1.111143
v -1.414212 0.020000 -1.414215
v -1.111138 0.020000 -1.662941
v -0.765364 0.020000 -1.847760
v -0.390178 0.020000 -1.961571
v 0.000000 0.020000 -2.000000
v 0.390181 0.020000 -1.961571
v -1.339387 0.020000 -3.233581
v -1.944492 0.020000 -2.910146
v -2.474871 0.020000 -2.474877
v -2.910141 0.020000 -1.944499
v -3.233577 0.020000 -1.339396
v -3.432748 0.020000 -0.682820
v -3.500000 0.020000 -0.000003
v -3.432749 0.020000 0.682813
v -3.233580 0.020000 1.339389
v -2.910145 0.020000 1.944494
v -2.474875 0.020000 2.474872
v -1.944498 0.020000 2.910142
v -1.339394 0.020000 3.233578
v -0.682818 0.020000 3.432748
v 0.765367 0.020000 -1.847759
v 1.111141 0.020000 -1.662939
v 1.414214 0.020000 -1.414214
v 1.662939 0.020000 -1.111140
v 1.847759 0.020000 -0.765367
v 1.961571 0.020000 -0.390181
v 2.000000 0.020000 -0.000000
v 1.961571 0.020000 0.390180
v 1.847759 0.020000 0.765367
v 1.662939 0.020000 1.111140
v 1.414214 0.020000 1.414214
v 1.111140 0.020000 1.662939
v 0.765367 0.020000 1.847759
v 0.390180 0.020000 1.961571
v 0.682815 0.020000 3.432749
v 1.339392 0.020000 3.233579
v 1.944496 0.020000 2.910144
v 2.474874 0.020000 2.474874
v 2.910144 0.020000 1.944496
v 3.233579 0.020000 1.339392
v 3.432749 0.020000 0.682816
v 3.500000 0.020000 -0.000000
v 3.432748 0.020000 -0.682816
v 3.233578 0.020000 -1.339392
v 2.910144 0.020000 -1.944496
v 2.474874 0.020000 -2.474874
v 1.944496 0.020000 -2.910144
v 1.339392 0.020000 -3.233578
v 0.000000 -3.000000 -2.000000
v 0.390181 -3.000000 -1.961571
v 0.765367 -3.000000 -1.847759
v -0.390178 -3.000000 -1.961571
v -0.765364 -3.000000 -1.847760
v -1.111138 -3.000000 -1.662941
v -1.414212 -3.000000 -1.414215
v -1.662938 -3.000000 -1.111143
v -1.847758 -3.000000 -0.765369
v -1.961570 -3.000000 -0.390183
v -2.000000 -3.000000 -0.000002
v -1.961571 -3.000000 0.390179
v -1.847760 -3.000000 0.765365
v -1.662940 -3.000000 1.111139
v -1.414214 -3.000000 1.414213
v -1.111141 -3.000000 1.662939
v -0.765368 -3.000000 1.847759
v -0.390181 -3.000000 1.961571
v -0.000001 -3.000000 2.000000
v 0.390180 -3.000000 1.961571
v 0.765367 -3.000000 1.847759
v 1.111140 -3.000000 1.662939
v 1.414214 -3.000000 1.414214
v 1.662939 -3.000000 1.111140
v 1.847759 -3.000000 0.765367
v 1.961571 -3.000000 0.390180
v 2.000000 -3.000000 -0.000000
v 1.961571 -3.000000 -0.390181
v 1.847759 -3.000000 -0.765367
v 1.662939 -3.000000 -1.111140
v 1.414214 -3.000000 -1.414214
v 1.111141 -3.000000 -1.662939
v 0.000000 -4.000000 -3.500000
v 0.682816 -4.000000 -3.432748
v -2.910141 -4.000000 -1.944499
v -2.474871 -4.000000 -2.474877
v -1.944492 -4.000000 -2.910146
v -1.339387 -4.000000 -3.233581
v -0.682811 -4.000000 -3.432750
v -0.000001 0.020000 2.000000
v -0.390181 0.020000 1.961571
v -0.765368 0.020000 1.847759
v -1.111141 0.020000 1.662939
v -1.414214 0.020000 1.414213
v -1.662940 0.020000 1.111139
v -1.847760 0.020000 0.765365
v -1.961571 0.020000 0.390179
v -2.000000 0.020000 -0.000002
v -1.961570 0.020000 -0.390183
v -1.847758 0.020000 -0.765369
v -1.662938 0.020000 -1.111143
v -1.414212 0.020000 -1.414215
v -1.111138 0.020000 -1.662941
v -0.765364 0.020000 -1.847760
v -0.390178 0.020000 -1.961571
v 0.000000 0.020000 -2.000000
v 0.390181 0.020000 -1.961571
v -0.682811 0.020000 -3.432750
v -1.339387 0.020000 -3.233581
v -1.944492 0.020000 -2.910146
v -2.474871 0.020000 -2.474877
v -2.910141 0.020000 -1.944499
v 0.000000 0.020000 -3.500000
v 0.765367 0.020000 -1.847759
v 1.111141 0.020000 -1.662939
v 1.414214 0.020000 -1.414214
v 1.662939 0.020000 -1.111140
v 1.847759 0.020000 -0.765367
v 1.961571 0.020000 -0.390181
v 2.000000 0.020000 -0.000000
v 1.961571 0.020000 0.390180
v 1.847759 0.020000 0.765367
v 1.662939 0.020000 1.111140
v 1.414214 0.020000 1.414214
v 1.111140 0.020000 1.662939
v 0.765367 0.020000 1.847759
v 0.390180 0.020000 1.961571
v -0.000001 0.020000 3.500000
v 0.682815 0.020000 3.432749
v 1.339392 0.020000 3.233579
v 1.944496 0.020000 2.910144
v 2.474874 0.020000 2.474874
v 2.910144 0.020000 1.944496
v 3.233579 0.020000 1.339392
v 3.432749 0.020000 0.682816
v 3.500000 0.020000 -0.000000
v 3.432748 0.020000 -0.682816
v 3.233578 0.020000 -1.339392
v 2.910144 0.020000 -1.944496
v 2.474874 0.020000 -2.474874
v 1.944496 0.020000 -2.910144
v 1.339392 0.020000 -3.233578
v 0.682816 0.020000 -3.432748
v 1.339392 -4.000000 -3.233578
v 1.944496 -4.000000 -2.910144
v 2.474874 -4.000000 -2.474874
v 2.910144 -4.000000 -1.944496
v 3.233578 -4.000000 -1.339392
v 3.432748 -4.000000 -0.682816
v 3.500000 -4.000000 -0.000000
v 3.432749 -4.000000 0.682816
v 3.233579 -4.000000 1.339392
v 2.910144 -4.000000 1.944496
v 2.474874 -4.000000 2.474874
v 1.944496 -4.000000 2.910144
v 1.339392 -4.000000 3.233579
v 0.682815 -4.000000 3.432749
v -0.000001 -4.000000 3.500000
v -0.682818 0.020000 3.432748
v -0.682818 -4.000000 3.432748
v -1.339394 0.020000 3.233578
v -1.339394 -4.000000 3.233578
v -1.944498 0.020000 2.910142
v -1.944498 -4.000000 2.910142
v -2.474875 0.020000 2.474872
v -2.474875 -4.000000 2.474872
v -2.910145 0.020000 1.944494
v -2.910145 -4.000000 1.944494
v -3.233580 0.020000 1.339389
v -3.233580 -4.000000 1.339389
v -3.432749 0.020000 0.682813
v -3.432749 -4.000000 0.682813
v -3.500000 0.020000 -0.000003
v -3.500000 -4.000000 -0.000003
v -3.432748 0.020000 -0.682820
v -3.432748 -4.000000 -0.682820
v -3.233577 0.020000 -1.339396
v -3.233577 -4.000000 -1.339396
v 0.000000 -3.000000 -2.000000
v 0.390181 -3.000000 -1.961571
v 0.765367 -3.000000 -1.847759
v -1.414212 -3.000000 -1.414215
v -1.662938 -3.000000 -1.111143
v -0.390178 -3.000000 -1.961571
v 1.111141 -3.000000 -1.662939
v 1.414214 -3.000000 -1.414214
v 1.662939 -3.000000 -1.111140
v 1.847759 -3.000000 -0.765367
v 1.961571 -3.000000 -0.390181
v 2.000000 -3.000000 -0.000000
v 1.961571 -3.000000 0.390180
v 1.847759 -3.000000 0.765367
v 1.662939 -3.000000 1.111140
v 1.414214 -3.000000 1.414214
v 1.111140 -3.000000 1.662939
v 0.765367 -3.000000 1.847759
v 0.390180 -3.000000 1.961571
v -0.000001 -3.000000 2.000000
v -0.390181 -3.000000 1.961571
v -0.765368 -3.000000 1.847759
v -1.111141 -3.000000 1.662939
v -1.414214 -3.000000 1.414213
v -1.662940 -3.000000 1.111139
v -1.847760 -3.000000 0.765365
v -1.961571 -3.000000 0.390179
v -2.000000 -3.000000 -0.000002
v -1.961570 -3.000000 -0.390183
v -1.847758 -3.000000 -0.765369
v -1.111138 -3.000000 -1.662941
v -0.765364 -3.000000 -1.847760
vt 0.3339 0.0000
vt 0.3605 0.5624
vt 0.3339 0.5624
vt 0.4272 0.6879
vt 0.1679 0.7676
vt 0.1522 0.7154
vt 0.3069 0.0000
vt 0.3069 0.5624
vt 0.4891 0.6784
vt 0.4861 0.6938
vt 0.4272 0.6879
vt 0.6865 0.7676
vt 0.6343 0.7393
vt 0.6402 0.7249
vt 0.3605 0.0000
vt 0.3855 0.5624
vt 0.3855 0.0000
vt 0.4080 0.5624
vt 0.4080 0.0000
vt 0.4272 0.5624
vt 0.2136 0.5624
vt 0.1944 0.0000
vt 0.2136 0.0000
vt 0.1944 0.5624
vt 0.1719 0.0000
vt 0.1719 0.5624
vt 0.1469 0.0000
vt 0.1469 0.5624
vt 0.1203 0.0000
vt 0.1203 0.5624
vt 0.0933 0.0000
vt 0.0933 0.5624
vt 0.0667 0.0000
vt 0.0667 0.5624
vt 0.0417 0.0000
vt 0.0417 0.5624
vt 0.0192 0.0000
vt 0.0192 0.5624
vt 0.0000 0.0000
vt 0.6025 0.5624
vt 0.5800 0.0000
vt 0.6025 0.0000
vt 0.5800 0.5624
vt 0.5549 0.0000
vt 0.5549 0.5624
vt 0.5284 0.0000
vt 0.5284 0.5624
vt 0.5013 0.0000
vt 0.5013 0.5624
vt 0.4747 0.0000
vt 0.4747 0.5624
vt 0.4497 0.0000
vt 0.4497 0.5624
vt 0.4272 0.0000
vt 0.6025 0.0000
vt 0.6250 0.5624
vt 0.6025 0.5624
vt 0.6250 0.0000
vt 0.6500 0.5624
vt 0.6500 0.0000
vt 0.6766 0.5624
vt 0.6766 0.0000
vt 0.7037 0.5624
vt 0.7037 0.0000
vt 0.7302 0.5624
vt 0.7302 0.0000
vt 0.7553 0.5624
vt 0.7553 0.0000
vt 0.7778 0.5624
vt 0.2136 0.0000
vt 0.2327 0.5624
vt 0.2136 0.5624
vt 0.2327 0.0000
vt 0.2553 0.5624
vt 0.2553 0.0000
vt 0.2803 0.5624
vt 0.2803 0.0000
vt 0.9422 0.4225
vt 0.9577 0.0000
vt 0.9577 0.4225
vt 0.9728 0.0000
vt 0.9728 0.4225
vt 0.3063 0.8972
vt 0.2537 0.9969
vt 0.1552 0.9436
vt 0.9270 0.4225
vt 0.9422 0.0000
vt 0.9871 0.0000
vt 0.9871 0.4225
vt 1.0000 0.0000
vt 1.0000 0.4225
vt 0.0000 0.9849
vt 0.0129 0.5624
vt 0.0129 0.9849
vt 0.0272 0.5624
vt 0.0272 0.9849
vt 0.0423 0.5624
vt 0.0423 0.9849
vt 0.0578 0.5624
vt 0.0578 0.9849
vt 0.0730 0.5624
vt 0.0730 0.9849
vt 0.0873 0.5624
vt 0.0873 0.9849
vt 0.1002 0.5624
vt 0.1002 0.9849
vt 0.1111 0.5624
vt 0.1111 0.9849
vt 0.8889 0.0000
vt 0.8760 0.4225
vt 0.8760 0.0000
vt 0.8617 0.4225
vt 0.8617 0.0000
vt 0.8465 0.4225
vt 0.8465 0.0000
vt 0.8311 0.4225
vt 0.8311 0.0000
vt 0.8159 0.4225
vt 0.8159 0.0000
vt 0.8016 0.4225
vt 0.8016 0.0000
vt 0.7887 0.4225
vt 0.7887 0.0000
vt 0.7778 0.4225
vt 0.7778 0.0000
vt 0.7778 0.8450
vt 0.7887 0.4225
vt 0.7887 0.8450
vt 0.8016 0.4225
vt 0.8016 0.8450
vt 0.8159 0.4225
vt 0.8159 0.8450
vt 0.8311 0.4225
vt 0.8311 0.8450
vt 0.8465 0.4225
vt 0.8465 0.8450
vt 0.8617 0.4225
vt 0.8617 0.8450
vt 0.8760 0.4225
vt 0.8760 0.8450
vt 0.8889 0.4225
vt 0.8889 0.8450
vt 0.8889 0.4225
vt 0.8998 0.0000
vt 0.8998 0.4225
vt 0.9127 0.0000
vt 0.9127 0.4225
vt 0.9270 0.0000
vt 0.1522 0.6879
vt 0.1575 0.6610
vt 0.1679 0.6357
vt 0.1829 0.6129
vt 0.2021 0.5935
vt 0.2246 0.5783
vt 0.2496 0.5678
vt 0.2762 0.5624
vt 0.3032 0.5624
vt 0.3298 0.5678
vt 0.3548 0.5783
vt 0.3773 0.5935
vt 0.3965 0.6129
vt 0.4115 0.6357
vt 0.4219 0.6610
vt 0.4272 0.7154
vt 0.4219 0.7423
vt 0.4115 0.7676
vt 0.3965 0.7904
vt 0.3773 0.8098
vt 0.3032 0.8409
vt 0.3548 0.8250
vt 0.3298 0.8355
vt 0.2762 0.8409
vt 0.2496 0.8355
vt 0.2246 0.8250
vt 0.2021 0.8098
vt 0.1829 0.7904
vt 0.1575 0.7423
vt 0.5782 0.5624
vt 0.6048 0.5678
vt 0.5876 0.6251
vt 0.5724 0.6221
vt 0.5246 0.5678
vt 0.5511 0.5624
vt 0.5569 0.6221
vt 0.4770 0.5935
vt 0.4996 0.5783
vt 0.5146 0.6398
vt 0.4428 0.6357
vt 0.4579 0.6129
vt 0.5037 0.6509
vt 0.4325 0.6610
vt 0.4325 0.7423
vt 0.4272 0.7154
vt 0.4861 0.7095
vt 0.4579 0.7904
vt 0.4428 0.7676
vt 0.5037 0.7524
vt 0.4996 0.8250
vt 0.4770 0.8098
vt 0.5275 0.7722
vt 0.5418 0.7782
vt 0.5569 0.7812
vt 0.5146 0.7634
vt 0.4951 0.6640
vt 0.5418 0.6251
vt 0.5275 0.6311
vt 0.4951 0.7393
vt 0.4891 0.7249
vt 0.5511 0.8409
vt 0.5246 0.8355
vt 0.5724 0.7812
vt 0.5782 0.8409
vt 0.6298 0.8250
vt 0.6048 0.8355
vt 0.6019 0.7722
vt 0.6715 0.7904
vt 0.6523 0.8098
vt 0.6257 0.7524
vt 0.6969 0.7423
vt 0.7022 0.6879
vt 0.7022 0.7154
vt 0.6433 0.7095
vt 0.6865 0.6357
vt 0.6969 0.6610
vt 0.6402 0.6784
vt 0.6523 0.5935
vt 0.6715 0.6129
vt 0.6148 0.6398
vt 0.6298 0.5783
vt 0.6019 0.6311
vt 0.6433 0.6938
vt 0.5876 0.7782
vt 0.6257 0.6509
vt 0.6148 0.7634
vt 0.6343 0.6640
vt 0.4272 0.0000
vt 0.0000 0.5624
vt 0.4272 0.5624
vt 0.7778 0.0000
vt 0.1522 0.9283
vt 0.1522 0.9126
vt 0.1552 0.8972
vt 0.1611 0.8828
vt 0.1697 0.8697
vt 0.1807 0.8586
vt 0.1936 0.8499
vt 0.2079 0.8439
vt 0.2230 0.8409
vt 0.2385 0.8409
vt 0.2537 0.8439
vt 0.2680 0.8499
vt 0.2809 0.8586
vt 0.2918 0.8697
vt 0.3004 0.8828
vt 0.3093 0.9126
vt 0.3004 0.9581
vt 0.3093 0.9283
vt 0.3063 0.9436
vt 0.2918 0.9712
vt 0.2809 0.9822
vt 0.2680 0.9909
vt 0.2385 1.0000
vt 0.2230 1.0000
vt 0.2079 0.9969
vt 0.1936 0.9909
vt 0.1807 0.9822
vt 0.1697 0.9712
vt 0.1611 0.9581
vt 0.0000 0.5624
vt 0.8889 0.4225
vt 0.8889 0.0000
vn 0.0000 0.0000 -1.0000
vn 0.1951 0.0000 -0.9808
vn 0.0000 -1.0000 0.0000
vn -0.1951 0.0000 -0.9808
vn 0.0000 1.0000 0.0000
vn 0.3827 0.0000 -0.9239
vn 0.5556 0.0000 -0.8314
vn 0.7071 0.0000 -0.7071
vn 0.8314 0.0000 -0.5556
vn 0.9239 0.0000 -0.3827
vn 0.9808 0.0000 -0.1951
vn 1.0000 0.0000 0.0000
vn 0.9808 0.0000 0.1951
vn 0.9239 0.0000 0.3827
vn 0.8314 0.0000 0.5556
vn 0.7071 0.0000 0.7071
vn 0.5556 0.0000 0.8314
vn 0.3827 0.0000 0.9239
vn 0.1951 0.0000 0.9808
vn 0.0000 0.0000 1.0000
vn -0.1951 0.0000 0.9808
vn -0.3827 0.0000 0.9239
vn -0.5556 0.0000 0.8314
vn -0.7071 0.0000 0.7071
vn -0.8314 0.0000 0.5556
vn -0.9239 0.0000 0.3827
vn -0.9808 0.0000 0.1951
vn -1.0000 0.0000 0.0000
vn -0.9808 0.0000 -0.1951
vn -0.9239 0.0000 -0.3827
vn -0.8314 0.0000 -0.5556
vn -0.7071 0.0000 -0.7071
vn -0.5556 0.0000 -0.8314
vn -0.3827 0.0000 -0.9239
usemtl None
s 1
f 159/1/1 130/2/2 129/3/1
f 203/4/3 133/5/3 135/6/3
f 154/7/4 129/3/1 34/8/4
f 144/9/5 145/10/5 221/11/5
f 183/12/5 165/13/5 166/14/5
f 3/15/2 190/16/6 130/2/2
f 96/17/6 6/18/7 190/16/6
f 95/19/7 192/20/8 6/18/7
f 94/21/8 193/22/9 192/23/8
f 93/24/9 9/25/10 193/22/9
f 92/26/10 10/27/11 9/25/10
f 91/28/11 11/29/12 10/27/11
f 90/30/12 197/31/13 11/29/12
f 89/32/13 13/33/14 197/31/13
f 88/34/14 199/35/15 13/33/14
f 87/36/15 200/37/16 199/35/15
f 86/38/16 16/39/17 200/37/16
f 85/40/17 202/41/18 16/42/17
f 84/43/18 18/44/19 202/41/18
f 83/45/19 19/46/20 18/44/19
f 36/47/20 20/48/21 19/46/20
f 68/49/21 208/50/22 20/48/21
f 67/51/22 210/52/23 208/50/22
f 66/53/23 23/54/24 210/52/23
f 65/55/24 24/56/25 23/57/24
f 64/58/25 216/59/26 24/56/25
f 63/60/26 26/61/27 216/59/26
f 62/62/27 220/63/28 26/61/27
f 61/64/28 28/65/29 220/63/28
f 60/66/29 224/67/30 28/65/29
f 59/68/30 30/69/31 224/67/30
f 58/70/31 31/71/32 30/72/31
f 57/73/32 32/74/33 31/71/32
f 56/75/33 33/76/34 32/74/33
f 55/77/34 34/8/4 33/76/34
f 53/78/20 226/79/21 54/80/21
f 54/80/21 227/81/22 69/82/22
f 245/83/5 237/84/5 98/85/5
f 52/86/19 225/87/20 53/78/20
f 69/82/22 128/88/23 70/89/23
f 70/89/23 127/90/24 71/91/24
f 71/92/24 126/93/25 72/94/25
f 72/94/25 125/95/26 73/96/26
f 73/96/26 124/97/27 74/98/27
f 74/98/27 123/99/28 75/100/28
f 75/100/28 122/101/29 76/102/29
f 76/102/29 121/103/30 77/104/30
f 77/104/30 120/105/31 78/106/31
f 78/106/31 119/107/32 79/108/32
f 79/109/32 118/110/33 80/111/33
f 80/111/33 117/112/34 81/113/34
f 81/113/34 116/114/4 82/115/4
f 82/115/4 115/116/1 37/117/1
f 37/117/1 114/118/2 38/119/2
f 38/119/2 113/120/6 39/121/6
f 39/121/6 112/122/7 40/123/7
f 40/123/7 111/124/8 41/125/8
f 41/126/8 110/127/9 42/128/9
f 42/128/9 109/129/10 43/130/10
f 43/130/10 108/131/11 44/132/11
f 44/132/11 107/133/12 45/134/12
f 45/134/12 106/135/13 46/136/13
f 46/136/13 105/137/14 47/138/14
f 47/138/14 104/139/15 48/140/15
f 48/140/15 103/141/16 49/142/16
f 49/143/16 102/144/17 50/145/17
f 50/145/17 101/146/18 51/147/18
f 51/147/18 100/148/19 52/86/19
f 159/1/1 3/15/2 130/2/2
f 135/6/3 1/149/3 4/150/3
f 4/150/3 5/151/3 191/152/3
f 191/152/3 7/153/3 8/154/3
f 8/154/3 194/155/3 191/152/3
f 195/156/3 196/157/3 12/158/3
f 12/158/3 198/159/3 195/156/3
f 14/160/3 15/161/3 203/4/3
f 201/162/3 17/163/3 203/4/3
f 203/4/3 204/164/3 206/165/3
f 206/165/3 21/166/3 22/167/3
f 22/167/3 212/168/3 218/169/3
f 214/170/3 25/171/3 218/169/3
f 218/169/3 27/172/3 203/4/3
f 222/173/3 29/174/3 131/175/3
f 131/175/3 132/176/3 133/5/3
f 133/5/3 134/177/3 135/6/3
f 135/6/3 4/150/3 195/156/3
f 191/152/3 194/155/3 195/156/3
f 195/156/3 198/159/3 14/160/3
f 15/161/3 201/162/3 203/4/3
f 203/4/3 206/165/3 22/167/3
f 212/168/3 214/170/3 218/169/3
f 27/172/3 222/173/3 131/175/3
f 131/175/3 133/5/3 203/4/3
f 4/150/3 191/152/3 195/156/3
f 195/156/3 14/160/3 203/4/3
f 203/4/3 22/167/3 218/169/3
f 27/172/3 131/175/3 203/4/3
f 135/6/3 195/156/3 203/4/3
f 154/7/4 159/1/1 129/3/1
f 205/178/5 174/179/5 136/180/5
f 205/178/5 136/180/5 137/181/5
f 209/182/5 207/183/5 138/184/5
f 213/185/5 211/186/5 141/187/5
f 217/188/5 215/189/5 142/190/5
f 221/11/5 219/191/5 144/9/5
f 158/192/5 223/193/5 146/194/5
f 156/195/5 157/196/5 149/197/5
f 35/198/5 155/199/5 151/200/5
f 152/201/5 153/202/5 35/198/5
f 151/200/5 152/201/5 35/198/5
f 155/199/5 150/203/5 151/200/5
f 223/193/5 221/11/5 145/10/5
f 215/189/5 213/185/5 142/190/5
f 207/183/5 205/178/5 137/181/5
f 207/183/5 137/181/5 138/184/5
f 219/191/5 217/188/5 143/204/5
f 155/199/5 156/195/5 150/203/5
f 150/203/5 156/195/5 149/197/5
f 209/182/5 138/184/5 139/205/5
f 209/182/5 139/205/5 140/206/5
f 149/197/5 157/196/5 148/207/5
f 148/207/5 157/196/5 158/192/5
f 209/182/5 140/206/5 211/186/5
f 140/206/5 141/187/5 211/186/5
f 147/208/5 148/207/5 158/192/5
f 146/194/5 147/208/5 158/192/5
f 213/185/5 141/187/5 142/190/5
f 217/188/5 142/190/5 143/204/5
f 145/10/5 146/194/5 223/193/5
f 219/191/5 143/204/5 144/9/5
f 189/209/5 2/210/5 153/202/5
f 35/198/5 153/202/5 2/210/5
f 153/202/5 160/211/5 189/209/5
f 188/212/5 189/209/5 160/211/5
f 186/213/5 187/214/5 162/215/5
f 184/216/5 185/217/5 164/218/5
f 182/219/5 183/12/5 166/14/5
f 180/220/5 181/221/5 167/222/5
f 178/223/5 179/224/5 169/225/5
f 176/226/5 177/227/5 172/228/5
f 174/179/5 175/229/5 173/230/5
f 173/230/5 136/180/5 174/179/5
f 172/228/5 173/230/5 175/229/5
f 175/229/5 176/226/5 172/228/5
f 179/224/5 180/220/5 168/231/5
f 182/219/5 166/14/5 167/222/5
f 187/214/5 161/232/5 162/215/5
f 160/211/5 161/232/5 188/212/5
f 188/212/5 161/232/5 187/214/5
f 181/221/5 182/219/5 167/222/5
f 172/228/5 177/227/5 171/233/5
f 171/233/5 177/227/5 178/223/5
f 186/213/5 162/215/5 163/234/5
f 186/213/5 163/234/5 185/217/5
f 170/235/5 171/233/5 178/223/5
f 169/225/5 170/235/5 178/223/5
f 163/234/5 164/218/5 185/217/5
f 164/218/5 165/13/5 184/216/5
f 168/231/5 169/225/5 179/224/5
f 165/13/5 183/12/5 184/216/5
f 167/222/5 168/231/5 180/220/5
f 3/15/2 96/17/6 190/16/6
f 96/17/6 95/19/7 6/18/7
f 95/19/7 94/236/8 192/20/8
f 94/21/8 93/24/9 193/22/9
f 93/24/9 92/26/10 9/25/10
f 92/26/10 91/28/11 10/27/11
f 91/28/11 90/30/12 11/29/12
f 90/30/12 89/32/13 197/31/13
f 89/32/13 88/34/14 13/33/14
f 88/34/14 87/36/15 199/35/15
f 87/36/15 86/38/16 200/37/16
f 86/38/16 85/237/17 16/39/17
f 85/40/17 84/43/18 202/41/18
f 84/43/18 83/45/19 18/44/19
f 83/45/19 36/47/20 19/46/20
f 36/47/20 68/49/21 20/48/21
f 68/49/21 67/51/22 208/50/22
f 67/51/22 66/53/23 210/52/23
f 66/53/23 65/238/24 23/54/24
f 65/55/24 64/58/25 24/56/25
f 64/58/25 63/60/26 216/59/26
f 63/60/26 62/62/27 26/61/27
f 62/62/27 61/64/28 220/63/28
f 61/64/28 60/66/29 28/65/29
f 60/66/29 59/68/30 224/67/30
f 59/68/30 58/239/31 30/69/31
f 58/70/31 57/73/32 31/71/32
f 57/73/32 56/75/33 32/74/33
f 56/75/33 55/77/34 33/76/34
f 55/77/34 154/7/4 34/8/4
f 53/78/20 225/87/20 226/79/21
f 54/80/21 226/79/21 227/81/22
f 98/85/5 97/240/5 230/241/5
f 230/241/5 256/242/5 255/243/5
f 255/243/5 228/244/5 229/245/5
f 229/245/5 254/246/5 255/243/5
f 253/247/5 252/248/5 251/249/5
f 251/249/5 250/250/5 249/251/5
f 249/251/5 248/252/5 247/253/5
f 247/253/5 246/254/5 249/251/5
f 245/83/5 244/255/5 241/256/5
f 243/257/5 242/258/5 241/256/5
f 241/256/5 240/259/5 237/84/5
f 239/260/5 238/261/5 237/84/5
f 237/84/5 236/262/5 235/263/5
f 235/263/5 234/264/5 237/84/5
f 233/265/5 232/266/5 231/267/5
f 231/267/5 99/268/5 98/85/5
f 98/85/5 230/241/5 255/243/5
f 255/243/5 254/246/5 253/247/5
f 253/247/5 251/249/5 245/83/5
f 249/251/5 246/254/5 245/83/5
f 244/255/5 243/257/5 241/256/5
f 240/259/5 239/260/5 237/84/5
f 237/84/5 234/264/5 233/265/5
f 233/265/5 231/267/5 237/84/5
f 98/85/5 255/243/5 245/83/5
f 251/249/5 249/251/5 245/83/5
f 245/83/5 241/256/5 237/84/5
f 237/84/5 231/267/5 98/85/5
f 255/243/5 253/247/5 245/83/5
f 52/86/19 100/148/19 225/87/20
f 69/82/22 227/81/22 128/88/23
f 70/89/23 128/88/23 127/90/24
f 71/92/24 127/269/24 126/93/25
f 72/94/25 126/93/25 125/95/26
f 73/96/26 125/95/26 124/97/27
f 74/98/27 124/97/27 123/99/28
f 75/100/28 123/99/28 122/101/29
f 76/102/29 122/101/29 121/103/30
f 77/104/30 121/103/30 120/105/31
f 78/106/31 120/105/31 119/107/32
f 79/109/32 119/270/32 118/110/33
f 80/111/33 118/110/33 117/112/34
f 81/113/34 117/112/34 116/114/4
f 82/115/4 116/114/4 115/116/1
f 37/117/1 115/116/1 114/118/2
f 38/119/2 114/118/2 113/120/6
f 39/121/6 113/120/6 112/122/7
f 40/123/7 112/122/7 111/124/8
f 41/126/8 111/124/8 110/127/9
f 42/128/9 110/127/9 109/129/10
f 43/130/10 109/129/10 108/131/11
f 44/132/11 108/131/11 107/133/12
f 45/134/12 107/133/12 106/135/13
f 46/136/13 106/135/13 105/137/14
f 47/138/14 105/137/14 104/139/15
f 48/140/15 104/139/15 103/141/16
f 49/143/16 103/271/16 102/144/17
f 50/145/17 102/144/17 101/146/18
f 51/147/18 101/146/18 100/148/19
