# Blender v2.77 (sub 0) OBJ File: ''
# www.blender.org
mtllib holeObstacle.mtl
o Cylinder
v 0.000000 -4.000000 -2.000000
v 0.390181 -4.000000 -1.961571
v 0.765367 -4.000000 -1.847759
v 1.111140 -4.000000 -1.662939
v 1.414214 -4.000000 -1.414214
v 1.662939 -4.000000 -1.111140
v 1.847759 -4.000000 -0.765367
v 1.961571 -4.000000 -0.390181
v 2.000000 -4.000000 -0.000000
v 1.961571 -4.000000 0.390180
v 1.847759 -4.000000 0.765367
v 1.662939 -4.000000 1.111140
v 1.414214 -4.000000 1.414214
v 1.111140 -4.000000 1.662939
v 0.765367 -4.000000 1.847759
v 0.390180 -4.000000 1.961571
v -0.000001 -4.000000 2.000000
v -0.390181 -4.000000 1.961570
v -0.765368 -4.000000 1.847759
v -1.111141 -4.000000 1.662939
v -1.414214 -4.000000 1.414213
v -1.662940 -4.000000 1.111139
v -1.847760 -4.000000 0.765365
v -1.961571 -4.000000 0.390179
v -2.000000 -4.000000 -0.000002
v -1.961570 -4.000000 -0.390183
v -1.847758 -4.000000 -0.765369
v -1.662938 -4.000000 -1.111143
v -1.414212 -4.000000 -1.414215
v -1.111138 -4.000000 -1.662941
v -0.765364 -4.000000 -1.847760
v -0.390178 -4.000000 -1.961571
v 0.000000 -3.500000 -1.500000
v 0.292636 -3.500000 -1.471178
v 0.574025 -3.500000 -1.385819
v -0.292633 -3.500000 -1.471178
v -0.574023 -3.500000 -1.385820
v -0.833354 -3.500000 -1.247205
v -1.060659 -3.500000 -1.060662
v -1.247203 -3.500000 -0.833357
v -1.385819 -3.500000 -0.574027
v -1.471178 -3.500000 -0.292637
v -1.500000 -3.500000 -0.000001
v -1.471178 -3.500000 0.292634
v -1.385820 -3.500000 0.574024
v -1.247205 -3.500000 0.833354
v -1.060661 -3.500000 1.060660
v -0.833356 -3.500000 1.247204
v -0.574026 -3.500000 1.385819
v -0.292636 -3.500000 1.471178
v -0.000000 -3.500000 1.500000
v 0.292635 -3.500000 1.471178
v 0.574025 -3.500000 1.385819
v 0.833355 -3.500000 1.247205
v 1.060660 -3.500000 1.060660
v 1.247205 -3.500000 0.833355
v 1.385819 -3.500000 0.574025
v 1.471178 -3.500000 0.292635
v 1.500000 -3.500000 -0.000000
v 1.471178 -3.500000 -0.292636
v 1.385819 -3.500000 -0.574025
v 1.247205 -3.500000 -0.833355
v 1.060660 -3.500000 -1.060660
v 0.833355 -3.500000 -1.247204
v 0.390181 -4.000000 -1.961571
v 0.000000 -4.000000 -2.000000
v -0.390178 -4.000000 -1.961571
v 0.765367 -4.000000 -1.847759
v 1.111140 -4.000000 -1.662939
v 1.414214 -4.000000 -1.414214
v 1.662939 -4.000000 -1.111140
v 1.847759 -4.000000 -0.765367
v 1.961571 -4.000000 -0.390181
v 2.000000 -4.000000 -0.000000
v 1.961571 -4.000000 0.390180
v 1.847759 -4.000000 0.765367
v 1.662939 -4.000000 1.111140
v 1.414214 -4.000000 1.414214
v 1.111140 -4.000000 1.662939
v 0.765367 -4.000000 1.847759
v 0.390180 -4.000000 1.961571
v -0.000001 -4.000000 2.000000
v -0.390181 -4.000000 1.961570
v -0.765368 -4.000000 1.847759
v -1.111141 -4.000000 1.662939
v -1.414214 -4.000000 1.414213
v -1.662940 -4.000000 1.111139
v -1.847760 -4.000000 0.765365
v -1.961571 -4.000000 0.390179
v -2.000000 -4.000000 -0.000002
v -1.961570 -4.000000 -0.390183
v -1.847758 -4.000000 -0.765369
v -1.662938 -4.000000 -1.111143
v -1.414212 -4.000000 -1.414215
v -1.111138 -4.000000 -1.662941
v -0.765364 -4.000000 -1.847760
v 0.000000 -3.500000 -1.500000
v 0.292636 -3.500000 -1.471178
v 0.574025 -3.500000 -1.385819
v -0.292633 -3.500000 -1.471178
v -0.574023 -3.500000 -1.385820
v -0.833354 -3.500000 -1.247205
v -1.060659 -3.500000 -1.060662
v -1.247203 -3.500000 -0.833357
v -1.385819 -3.500000 -0.574027
v -1.471178 -3.500000 -0.292637
v -1.500000 -3.500000 -0.000001
v -1.471178 -3.500000 0.292634
v -1.385820 -3.500000 0.574024
v -1.247205 -3.500000 0.833354
v -1.060661 -3.500000 1.060660
v -0.833356 -3.500000 1.247204
v -0.574026 -3.500000 1.385819
v -0.292636 -3.500000 1.471178
v -0.000000 -3.500000 1.500000
v 0.833355 -3.500000 -1.247204
v 1.060660 -3.500000 -1.060660
v 1.247205 -3.500000 -0.833355
v 1.385819 -3.500000 -0.574025
v 1.471178 -3.500000 -0.292636
v 1.500000 -3.500000 -0.000000
v 1.471178 -3.500000 0.292635
v 1.385819 -3.500000 0.574025
v 1.247205 -3.500000 0.833355
v 1.060660 -3.500000 1.060660
v 0.833355 -3.500000 1.247205
v 0.574025 -3.500000 1.385819
v 0.292635 -3.500000 1.471178
v -0.000000 -0.100000 1.500000
v -0.292636 -0.100000 1.471178
v -0.574026 -0.100000 1.385819
v -0.833356 -0.100000 1.247204
v -1.060661 -0.100000 1.060660
v -1.247205 -0.100000 0.833355
v -1.385820 -0.100000 0.574025
v -1.471178 -0.100000 0.292635
v -1.500000 -0.100000 -0.000001
v -1.471178 -0.100000 -0.292637
v -1.385819 -0.100000 -0.574026
v -1.247203 -0.100000 -0.833356
v -1.060659 -0.100000 -1.060661
v -0.833354 -0.100000 -1.247205
v -0.574023 -0.100000 -1.385820
v -0.292633 -0.100000 -1.471178
v 0.000000 -0.100000 -1.500000
v 0.292636 -0.100000 -1.471177
v -0.390178 -0.010000 -1.961571
v -0.765364 -0.010000 -1.847760
v -1.111138 -0.010000 -1.662940
v -1.414212 -0.010000 -1.414215
v -1.662938 -0.010000 -1.111142
v -1.847758 -0.010000 -0.765368
v -1.961570 -0.010000 -0.390182
v -2.000000 -0.010000 -0.000001
v -1.961571 -0.010000 0.390180
v -1.847760 -0.010000 0.765366
v -1.414214 -0.010000 1.414213
v -1.111141 -0.010000 1.662939
v -0.765368 -0.010000 1.847759
v -0.390181 -0.010000 1.961571
v 0.000000 -0.010000 -1.999999
v 0.574025 -0.100000 -1.385819
v 0.390181 -0.010000 -1.961570
v 0.765367 -0.010000 -1.847758
v 1.111140 -0.010000 -1.662939
v 1.414214 -0.010000 -1.414213
v 1.662939 -0.010000 -1.111140
v 1.847759 -0.010000 -0.765366
v 1.961571 -0.010000 -0.390180
v 2.000000 -0.010000 0.000000
v 1.961571 -0.010000 0.390181
v 1.847759 -0.010000 0.765367
v 1.662939 -0.010000 1.111141
v 1.414214 -0.010000 1.414214
v 1.111140 -0.010000 1.662940
v 0.765367 -0.010000 1.847760
v -0.000001 -0.010000 2.000001
v -1.662940 -0.010000 1.111140
v 0.833355 -0.100000 -1.247204
v 1.060660 -0.100000 -1.060660
v 1.247205 -0.100000 -0.833355
v 1.385819 -0.100000 -0.574025
v 1.471178 -0.100000 -0.292635
v 1.500000 -0.100000 0.000000
v 1.471178 -0.100000 0.292636
v 1.385819 -0.100000 0.574025
v 1.247205 -0.100000 0.833356
v 1.060660 -0.100000 1.060661
v 0.833355 -0.100000 1.247205
v 0.574025 -0.100000 1.385820
v 0.292635 -0.100000 1.471178
v 0.390180 -0.010000 1.961571
v -0.000000 -0.100000 1.500000
v -0.292636 -0.100000 1.471178
v -0.574026 -0.100000 1.385819
v -0.833356 -0.100000 1.247204
v -1.060661 -0.100000 1.060660
v -1.247205 -0.100000 0.833355
v -1.385820 -0.100000 0.574025
v -1.471178 -0.100000 0.292635
v -1.500000 -0.100000 -0.000001
v -1.471178 -0.100000 -0.292637
v -1.385819 -0.100000 -0.574026
v -1.247203 -0.100000 -0.833356
v -1.060659 -0.100000 -1.060661
v -0.833354 -0.100000 -1.247205
v -0.574023 -0.100000 -1.385820
v -0.292633 -0.100000 -1.471178
v 0.000000 -0.100000 -1.500000
v 0.292636 -0.100000 -1.471177
v -0.390178 -0.010000 -1.961571
v -0.765364 -0.010000 -1.847760
v -1.111138 -0.010000 -1.662940
v -1.414212 -0.010000 -1.414215
v -1.662938 -0.010000 -1.111142
v -1.847758 -0.010000 -0.765368
v -1.961570 -0.010000 -0.390182
v -2.000000 -0.010000 -0.000001
v -1.961571 -0.010000 0.390180
v -1.847760 -0.010000 0.765366
v -1.414214 -0.010000 1.414213
v -1.111141 -0.010000 1.662939
v -0.765368 -0.010000 1.847759
v -0.390181 -0.010000 1.961571
v 0.000000 -0.010000 -1.999999
v 0.574025 -0.100000 -1.385819
v 0.390181 -0.010000 -1.961570
v 0.765367 -0.010000 -1.847758
v 1.111140 -0.010000 -1.662939
v 1.414214 -0.010000 -1.414213
v 1.662939 -0.010000 -1.111140
v 1.847759 -0.010000 -0.765366
v 1.961571 -0.010000 -0.390180
v 2.000000 -0.010000 0.000000
v 1.961571 -0.010000 0.390181
v 1.847759 -0.010000 0.765367
v 1.662939 -0.010000 1.111141
v 1.414214 -0.010000 1.414214
v 1.111140 -0.010000 1.662940
v 0.765367 -0.010000 1.847760
v -0.000001 -0.010000 2.000001
v -1.662940 -0.010000 1.111140
v 0.833355 -0.100000 -1.247204
v 1.060660 -0.100000 -1.060660
v 1.247205 -0.100000 -0.833355
v 1.385819 -0.100000 -0.574025
v 1.471178 -0.100000 -0.292635
v 1.500000 -0.100000 0.000000
v 1.471178 -0.100000 0.292636
v 1.385819 -0.100000 0.574025
v 1.247205 -0.100000 0.833356
v 1.060660 -0.100000 1.060661
v 0.833355 -0.100000 1.247205
v 0.574025 -0.100000 1.385820
v 0.292635 -0.100000 1.471178
v 0.390180 -0.010000 1.961571
vt 0.5634 0.5326
vt 0.5455 0.0000
vt 0.5634 0.0000
vt 0.5476 0.5377
vt 0.6337 0.7038
vt 0.3865 0.6265
vt 0.0179 0.5326
vt 0.0000 0.0000
vt 0.0179 0.0000
vt 0.5455 0.5326
vt 0.5244 0.0000
vt 0.5244 0.5326
vt 0.5010 0.0000
vt 0.5010 0.5326
vt 0.4762 0.0000
vt 0.4762 0.5326
vt 0.4508 0.0000
vt 0.4508 0.5326
vt 0.4260 0.0000
vt 0.4260 0.5326
vt 0.4026 0.0000
vt 0.4026 0.5326
vt 0.3815 0.0000
vt 0.3815 0.5326
vt 0.3605 0.0000
vt 0.3605 0.5326
vt 0.3371 0.0000
vt 0.3371 0.5326
vt 0.3123 0.0000
vt 0.3123 0.5326
vt 0.2869 0.0000
vt 0.2869 0.5326
vt 0.2621 0.0000
vt 0.2621 0.5326
vt 0.2387 0.0000
vt 0.2387 0.5326
vt 0.2176 0.0000
vt 0.2176 0.5326
vt 0.1997 0.0000
vt 0.5634 0.0000
vt 0.5844 0.5326
vt 0.5634 0.5326
vt 0.5844 0.0000
vt 0.6078 0.5326
vt 0.6078 0.0000
vt 0.6327 0.5326
vt 0.6327 0.0000
vt 0.6580 0.5326
vt 0.6580 0.0000
vt 0.6828 0.5326
vt 0.6828 0.0000
vt 0.7062 0.5326
vt 0.7062 0.0000
vt 0.7273 0.5326
vt 0.1997 0.5326
vt 0.1818 0.0000
vt 0.1997 0.0000
vt 0.1818 0.5326
vt 0.1608 0.0000
vt 0.1608 0.5326
vt 0.1374 0.0000
vt 0.1374 0.5326
vt 0.1125 0.0000
vt 0.1125 0.5326
vt 0.0872 0.0000
vt 0.0872 0.5326
vt 0.0624 0.0000
vt 0.0624 0.5326
vt 0.0390 0.0000
vt 0.0390 0.5326
vt 0.7407 0.4674
vt 0.7565 0.0000
vt 0.7565 0.4674
vt 0.7740 0.0000
vt 0.7740 0.4674
vt 0.1752 0.9851
vt 0.1354 0.8500
vt 0.2665 0.8090
vt 0.7273 0.4674
vt 0.7407 0.0000
vt 0.7927 0.0000
vt 0.7927 0.4674
vt 0.8117 0.0000
vt 0.8117 0.4674
vt 0.8303 0.0000
vt 0.8303 0.4674
vt 0.8478 0.0000
vt 0.8478 0.4674
vt 0.8636 0.4674
vt 0.8636 0.0000
vt 0.8771 0.0000
vt 0.8771 0.4674
vt 0.7273 0.9348
vt 0.7431 0.4674
vt 0.7431 0.9348
vt 0.7606 0.4674
vt 0.7606 0.9348
vt 0.7792 0.4674
vt 0.7792 0.9348
vt 0.7982 0.4674
vt 0.7982 0.9348
vt 0.8169 0.4674
vt 0.8169 0.9348
vt 0.8344 0.4674
vt 0.8344 0.9348
vt 0.8502 0.4674
vt 0.8502 0.9348
vt 0.8636 0.9348
vt 0.8636 0.4674
vt 1.0000 0.4674
vt 0.9866 0.9348
vt 0.9866 0.4674
vt 0.9708 0.9348
vt 0.9708 0.4674
vt 0.9532 0.9348
vt 0.9532 0.4674
vt 0.9346 0.9348
vt 0.9346 0.4674
vt 0.9156 0.9348
vt 0.9156 0.4674
vt 0.8970 0.9348
vt 0.8970 0.4674
vt 0.8794 0.4674
vt 0.8794 0.9348
vt 0.8636 0.9348
vt 0.8636 0.4674
vt 0.0158 1.0000
vt 0.0000 0.5326
vt 0.0158 0.5326
vt 0.0333 0.5326
vt 0.0333 1.0000
vt 0.0520 0.5326
vt 0.0520 1.0000
vt 0.0710 0.5326
vt 0.0710 1.0000
vt 0.0896 0.5326
vt 0.0896 1.0000
vt 0.1071 0.5326
vt 0.1071 1.0000
vt 0.1229 0.5326
vt 0.1229 1.0000
vt 0.0710 1.0000
vt 0.1125 0.5326
vt 0.0520 1.0000
vt 0.0896 1.0000
vt 0.0872 0.5326
vt 0.0390 0.5326
vt 0.0624 0.5326
vt 0.1071 1.0000
vt 0.0179 0.5326
vt 0.7273 0.4674
vt 0.5634 0.5326
vt 0.7565 0.4674
vt 0.7407 0.4674
vt 0.5244 0.5326
vt 0.7740 0.4674
vt 0.7927 0.4674
vt 0.5010 0.5326
vt 0.8117 0.4674
vt 0.4762 0.5326
vt 0.8303 0.4674
vt 0.4508 0.5326
vt 0.4260 0.5326
vt 0.8636 0.4674
vt 0.4026 0.5326
vt 0.8771 0.4674
vt 0.3815 0.5326
vt 0.7431 0.9348
vt 0.3605 0.5326
vt 0.3371 0.5326
vt 0.7792 0.9348
vt 0.3123 0.5326
vt 0.2869 0.5326
vt 0.8169 0.9348
vt 0.2621 0.5326
vt 0.2387 0.5326
vt 0.8344 0.9348
vt 0.2176 0.5326
vt 1.0000 0.4674
vt 0.8502 0.9348
vt 0.5844 0.0000
vt 0.9866 0.4674
vt 0.1374 0.5326
vt 0.0333 1.0000
vt 0.0158 1.0000
vt 0.1608 0.5326
vt 0.0000 1.0000
vt 0.1818 0.5326
vt 0.8794 0.4674
vt 0.8970 0.4674
vt 0.7273 0.0000
vt 0.7062 0.0000
vt 0.9156 0.4674
vt 0.6828 0.0000
vt 0.9346 0.4674
vt 0.6327 0.0000
vt 0.9532 0.4674
vt 0.6078 0.0000
vt 0.9708 0.4674
vt 0.4726 0.7926
vt 0.4492 0.7826
vt 0.4282 0.7681
vt 0.4102 0.7496
vt 0.3962 0.7279
vt 0.3865 0.7038
vt 0.3815 0.6782
vt 0.3815 0.6521
vt 0.3962 0.6024
vt 0.4102 0.5807
vt 0.4282 0.5622
vt 0.4492 0.5477
vt 0.4726 0.5377
vt 0.4974 0.5326
vt 0.5228 0.5326
vt 0.5710 0.5477
vt 0.5921 0.5622
vt 0.6100 0.5807
vt 0.6240 0.6024
vt 0.6337 0.6265
vt 0.6387 0.6521
vt 0.6387 0.6782
vt 0.6240 0.7279
vt 0.6100 0.7496
vt 0.5921 0.7681
vt 0.5710 0.7826
vt 0.5476 0.7926
vt 0.5228 0.7976
vt 0.4974 0.7976
vt 0.0000 0.5326
vt 0.1997 0.5326
vt 0.7273 0.0000
vt 0.2823 0.8198
vt 0.2957 0.8337
vt 0.3063 0.8500
vt 0.3136 0.8680
vt 0.3173 0.8872
vt 0.3173 0.9068
vt 0.3136 0.9260
vt 0.3063 0.9441
vt 0.2957 0.9604
vt 0.2823 0.9742
vt 0.2665 0.9851
vt 0.2490 0.9926
vt 0.2303 0.9964
vt 0.2113 0.9964
vt 0.1927 0.9926
vt 0.1594 0.9742
vt 0.1459 0.9604
vt 0.1354 0.9441
vt 0.1281 0.9260
vt 0.1244 0.9068
vt 0.1244 0.8872
vt 0.1281 0.8680
vt 0.1459 0.8337
vt 0.1594 0.8198
vt 0.1752 0.8090
vt 0.1927 0.8015
vt 0.2113 0.7976
vt 0.2303 0.7976
vt 0.2490 0.8015
vt 0.7273 0.0000
vt 0.7273 0.4674
vt 1.0000 0.9348
vt 0.0000 1.0000
vt 0.5455 0.5326
vt 0.8478 0.4674
vt 0.7273 0.9348
vt 0.7606 0.9348
vt 0.7982 0.9348
vt 0.5634 0.0000
vt 0.1997 0.5326
vt 0.6580 0.0000
vn 0.0000 0.0000 -1.0000
vn 0.1951 0.0000 -0.9808
vn 0.0000 -1.0000 0.0000
vn -0.1951 0.0000 -0.9808
vn 0.3827 0.0000 -0.9239
vn 0.5556 0.0000 -0.8314
vn 0.7071 0.0000 -0.7071
vn 0.8314 0.0000 -0.5556
vn 0.9239 0.0000 -0.3827
vn 0.9808 0.0000 -0.1951
vn 1.0000 0.0000 0.0000
vn 0.9808 0.0000 0.1951
vn 0.9239 0.0000 0.3827
vn 0.8314 0.0000 0.5556
vn 0.7071 0.0000 0.7071
vn 0.5556 0.0000 0.8314
vn 0.3827 0.0000 0.9239
vn 0.1951 0.0000 0.9808
vn 0.0000 0.0000 1.0000
vn -0.1951 0.0000 0.9808
vn -0.3827 0.0000 0.9239
vn -0.5556 0.0000 0.8314
vn -0.7071 0.0000 0.7071
vn -0.8314 0.0000 0.5556
vn -0.9239 0.0000 0.3827
vn -0.9808 0.0000 0.1951
vn -1.0000 0.0000 0.0000
vn -0.9808 0.0000 -0.1951
vn -0.9239 0.0000 -0.3827
vn -0.8314 0.0000 -0.5556
vn -0.7071 0.0000 -0.7071
vn -0.5556 0.0000 -0.8314
vn -0.3827 0.0000 -0.9239
vn 0.0000 1.0000 0.0000
vn 0.1252 0.9842 0.1252
vn 0.1473 0.9842 0.0984
vn 0.0984 0.9842 0.1473
vn 0.0678 0.9842 0.1636
vn 0.0345 0.9842 0.1737
vn 0.0000 0.9842 0.1771
vn -0.0345 0.9842 0.1737
vn -0.0678 0.9842 0.1636
vn -0.0984 0.9842 0.1473
vn -0.1252 0.9842 0.1252
vn -0.1473 0.9842 0.0984
vn -0.1636 0.9842 0.0678
vn -0.1737 0.9842 0.0345
vn -0.1771 0.9842 0.0000
vn -0.1737 0.9842 -0.0345
vn -0.1636 0.9842 -0.0678
vn -0.1473 0.9842 -0.0984
vn -0.1252 0.9842 -0.1252
vn -0.0984 0.9842 -0.1473
vn -0.0678 0.9842 -0.1636
vn -0.0345 0.9842 -0.1737
vn 0.0000 0.9842 -0.1771
vn 0.0345 0.9842 -0.1737
vn 0.1636 0.9842 0.0678
vn 0.1737 0.9842 0.0345
vn 0.1771 0.9842 0.0000
vn 0.1737 0.9842 -0.0345
vn 0.1636 0.9842 -0.0678
vn 0.1473 0.9842 -0.0984
vn 0.1252 0.9842 -0.1252
vn 0.0984 0.9842 -0.1473
vn 0.0678 0.9842 -0.1636
usemtl None
s 1
f 225/1/1 65/2/2 66/3/1
f 16/4/3 89/5/3 73/6/3
f 211/7/4 66/8/1 32/9/4
f 227/10/2 68/11/5 65/2/2
f 228/12/5 69/13/6 68/11/5
f 229/14/6 70/15/7 69/13/6
f 230/16/7 6/17/8 70/15/7
f 231/18/8 7/19/9 6/17/8
f 232/20/9 8/21/10 7/19/9
f 233/22/10 9/23/11 8/21/10
f 234/24/11 10/25/12 9/23/11
f 235/26/12 11/27/13 10/25/12
f 236/28/13 77/29/14 11/27/13
f 237/30/14 78/31/15 77/29/14
f 238/32/15 79/33/16 78/31/15
f 239/34/16 15/35/17 79/33/16
f 240/36/17 81/37/18 15/35/17
f 256/38/18 82/39/19 81/37/18
f 241/40/19 83/41/20 82/42/19
f 224/43/20 19/44/21 83/41/20
f 223/45/21 20/46/22 19/44/21
f 222/47/22 21/48/23 20/46/22
f 221/49/23 22/50/24 21/48/23
f 242/51/24 88/52/25 22/50/24
f 220/53/25 24/54/26 88/52/25
f 219/55/26 90/56/27 24/57/26
f 218/58/27 91/59/28 90/56/27
f 217/60/28 27/61/29 91/59/28
f 216/62/29 93/63/30 27/61/29
f 215/64/30 29/65/31 93/63/30
f 214/66/31 95/67/32 29/65/31
f 213/68/32 31/69/33 95/67/32
f 212/70/33 32/9/4 31/69/33
f 209/71/19 98/72/20 210/73/20
f 210/73/20 99/74/21 226/75/21
f 114/76/34 122/77/34 34/78/34
f 208/79/18 97/80/19 209/71/19
f 226/75/21 64/81/22 243/82/22
f 243/82/22 63/83/23 244/84/23
f 244/84/23 62/85/24 245/86/24
f 245/86/24 61/87/25 246/88/25
f 247/89/26 61/87/25 60/90/26
f 247/89/26 59/91/27 248/92/27
f 248/93/27 58/94/28 249/95/28
f 249/95/28 57/96/29 250/97/29
f 250/97/29 56/98/30 251/99/30
f 251/99/30 55/100/31 252/101/31
f 252/101/31 54/102/32 253/103/32
f 253/103/32 53/104/33 254/105/33
f 254/105/33 52/106/4 255/107/4
f 193/108/1 52/106/4 51/109/1
f 193/110/1 50/111/2 194/112/2
f 194/112/2 49/113/5 195/114/5
f 195/114/5 48/115/6 196/116/6
f 196/116/6 47/117/7 197/118/7
f 197/118/7 46/119/8 198/120/8
f 198/120/8 45/121/9 199/122/9
f 200/123/10 45/121/9 44/124/10
f 200/123/10 43/125/11 201/126/11
f 202/127/12 43/128/11 42/129/12
f 202/127/12 41/130/13 203/131/13
f 203/131/13 40/132/14 204/133/14
f 204/133/14 39/134/15 205/135/15
f 205/135/15 38/136/16 206/137/16
f 206/137/16 37/138/17 207/139/17
f 207/139/17 36/140/18 208/141/18
f 141/142/35 151/143/36 140/144/36
f 142/145/37 150/146/35 141/142/35
f 142/145/37 148/147/38 149/148/37
f 143/149/38 147/150/39 148/147/38
f 144/151/39 161/152/40 147/150/39
f 146/153/41 161/152/40 145/154/40
f 164/155/42 146/153/41 162/156/42
f 164/155/42 179/157/43 165/158/43
f 165/158/43 180/159/44 166/160/44
f 166/160/44 181/161/45 167/162/45
f 181/161/45 168/163/46 167/162/45
f 168/163/46 183/164/47 169/165/47
f 169/165/47 184/166/48 170/167/48
f 170/167/48 185/168/49 171/169/49
f 185/168/49 172/170/50 171/169/49
f 172/170/50 187/171/51 173/172/51
f 187/171/51 174/173/52 173/172/51
f 174/173/52 189/174/53 175/175/53
f 189/174/53 176/176/54 175/175/53
f 190/177/54 192/178/55 176/176/54
f 129/179/56 192/178/55 191/180/55
f 160/181/57 129/179/56 130/182/57
f 140/144/36 152/183/58 139/184/58
f 138/185/59 152/183/58 153/186/59
f 137/187/60 153/186/59 154/188/60
f 154/188/60 136/189/61 137/187/60
f 135/190/62 155/191/61 156/192/62
f 156/192/62 134/193/63 135/190/62
f 178/194/63 133/195/64 134/193/63
f 133/195/64 158/196/65 132/197/65
f 132/197/65 159/198/66 131/199/66
f 130/182/57 159/198/66 160/181/57
f 225/1/1 227/10/2 65/2/2
f 67/200/3 1/201/3 2/202/3
f 2/202/3 3/203/3 4/204/3
f 4/204/3 5/205/3 73/6/3
f 71/206/3 72/207/3 73/6/3
f 73/6/3 74/208/3 75/209/3
f 75/209/3 76/210/3 12/211/3
f 12/211/3 13/212/3 16/4/3
f 14/213/3 80/214/3 16/4/3
f 16/4/3 17/215/3 18/216/3
f 18/216/3 84/217/3 85/218/3
f 85/218/3 86/219/3 87/220/3
f 87/220/3 23/221/3 89/5/3
f 89/5/3 25/222/3 26/223/3
f 26/223/3 92/224/3 28/225/3
f 28/225/3 94/226/3 67/200/3
f 30/227/3 96/228/3 67/200/3
f 67/200/3 2/202/3 4/204/3
f 5/205/3 71/206/3 73/6/3
f 73/6/3 75/209/3 16/4/3
f 13/212/3 14/213/3 16/4/3
f 16/4/3 18/216/3 89/5/3
f 85/218/3 87/220/3 89/5/3
f 89/5/3 26/223/3 67/200/3
f 94/226/3 30/227/3 67/200/3
f 67/200/3 4/204/3 73/6/3
f 75/209/3 12/211/3 16/4/3
f 18/216/3 85/218/3 89/5/3
f 26/223/3 28/225/3 67/200/3
f 67/200/3 73/6/3 89/5/3
f 211/7/4 225/229/1 66/8/1
f 227/10/2 228/12/5 68/11/5
f 228/12/5 229/14/6 69/13/6
f 229/14/6 230/16/7 70/15/7
f 230/16/7 231/18/8 6/17/8
f 231/18/8 232/20/9 7/19/9
f 232/20/9 233/22/10 8/21/10
f 233/22/10 234/24/11 9/23/11
f 234/24/11 235/26/12 10/25/12
f 235/26/12 236/28/13 11/27/13
f 236/28/13 237/30/14 77/29/14
f 237/30/14 238/32/15 78/31/15
f 238/32/15 239/34/16 79/33/16
f 239/34/16 240/36/17 15/35/17
f 240/36/17 256/38/18 81/37/18
f 256/38/18 241/230/19 82/39/19
f 241/40/19 224/43/20 83/41/20
f 224/43/20 223/45/21 19/44/21
f 223/45/21 222/47/22 20/46/22
f 222/47/22 221/49/23 21/48/23
f 221/49/23 242/51/24 22/50/24
f 242/51/24 220/53/25 88/52/25
f 220/53/25 219/231/26 24/54/26
f 219/55/26 218/58/27 90/56/27
f 218/58/27 217/60/28 91/59/28
f 217/60/28 216/62/29 27/61/29
f 216/62/29 215/64/30 93/63/30
f 215/64/30 214/66/31 29/65/31
f 214/66/31 213/68/32 95/67/32
f 213/68/32 212/70/33 31/69/33
f 212/70/33 211/7/4 32/9/4
f 209/71/19 97/80/19 98/72/20
f 210/73/20 98/72/20 99/74/21
f 34/78/34 33/232/34 100/233/34
f 100/233/34 101/234/34 102/235/34
f 102/235/34 103/236/34 104/237/34
f 104/237/34 105/238/34 106/239/34
f 106/239/34 107/240/34 108/241/34
f 108/241/34 109/242/34 110/243/34
f 110/243/34 111/244/34 112/245/34
f 112/245/34 113/246/34 110/243/34
f 114/76/34 115/247/34 128/248/34
f 128/248/34 127/249/34 126/250/34
f 126/250/34 125/251/34 122/77/34
f 124/252/34 123/253/34 122/77/34
f 122/77/34 121/254/34 120/255/34
f 120/255/34 119/256/34 118/257/34
f 118/257/34 117/258/34 34/78/34
f 116/259/34 35/260/34 34/78/34
f 34/78/34 100/233/34 102/235/34
f 102/235/34 104/237/34 34/78/34
f 106/239/34 108/241/34 110/243/34
f 110/243/34 113/246/34 114/76/34
f 114/76/34 128/248/34 122/77/34
f 125/251/34 124/252/34 122/77/34
f 122/77/34 120/255/34 34/78/34
f 117/258/34 116/259/34 34/78/34
f 34/78/34 104/237/34 106/239/34
f 106/239/34 110/243/34 114/76/34
f 128/248/34 126/250/34 122/77/34
f 120/255/34 118/257/34 34/78/34
f 34/78/34 106/239/34 114/76/34
f 208/79/18 36/261/18 97/80/19
f 226/75/21 99/74/21 64/81/22
f 243/82/22 64/81/22 63/83/23
f 244/84/23 63/83/23 62/85/24
f 245/86/24 62/85/24 61/87/25
f 247/89/26 246/88/25 61/87/25
f 247/89/26 60/90/26 59/91/27
f 248/93/27 59/262/27 58/94/28
f 249/95/28 58/94/28 57/96/29
f 250/97/29 57/96/29 56/98/30
f 251/99/30 56/98/30 55/100/31
f 252/101/31 55/100/31 54/102/32
f 253/103/32 54/102/32 53/104/33
f 254/105/33 53/104/33 52/106/4
f 193/108/1 255/107/4 52/106/4
f 193/110/1 51/263/1 50/111/2
f 194/112/2 50/111/2 49/113/5
f 195/114/5 49/113/5 48/115/6
f 196/116/6 48/115/6 47/117/7
f 197/118/7 47/117/7 46/119/8
f 198/120/8 46/119/8 45/121/9
f 200/123/10 199/122/9 45/121/9
f 200/123/10 44/124/10 43/125/11
f 202/127/12 201/264/11 43/128/11
f 202/127/12 42/129/12 41/130/13
f 203/131/13 41/130/13 40/132/14
f 204/133/14 40/132/14 39/134/15
f 205/135/15 39/134/15 38/136/16
f 206/137/16 38/136/16 37/138/17
f 207/139/17 37/138/17 36/140/18
f 141/142/35 150/146/35 151/143/36
f 142/145/37 149/148/37 150/146/35
f 142/145/37 143/149/38 148/147/38
f 143/149/38 144/151/39 147/150/39
f 144/151/39 145/154/40 161/152/40
f 146/153/41 163/265/41 161/152/40
f 164/155/42 163/265/41 146/153/41
f 164/155/42 162/156/42 179/157/43
f 165/158/43 179/157/43 180/159/44
f 166/160/44 180/159/44 181/161/45
f 181/161/45 182/266/46 168/163/46
f 168/163/46 182/266/46 183/164/47
f 169/165/47 183/164/47 184/166/48
f 170/167/48 184/267/48 185/168/49
f 185/168/49 186/268/50 172/170/50
f 172/170/50 186/268/50 187/171/51
f 187/171/51 188/269/52 174/173/52
f 174/173/52 188/269/52 189/174/53
f 189/174/53 190/177/54 176/176/54
f 190/177/54 191/180/55 192/178/55
f 129/179/56 177/270/56 192/178/55
f 160/181/57 177/270/56 129/179/56
f 140/144/36 151/143/36 152/183/58
f 138/185/59 139/184/58 152/183/58
f 137/187/60 138/185/59 153/186/59
f 154/188/60 155/271/61 136/189/61
f 135/190/62 136/189/61 155/191/61
f 156/192/62 178/194/63 134/193/63
f 178/194/63 157/272/64 133/195/64
f 133/195/64 157/272/64 158/196/65
f 132/197/65 158/196/65 159/198/66
f 130/182/57 131/199/66 159/198/66
