# Blender v2.77 (sub 0) OBJ File: ''
# www.blender.org
mtllib rot_test.mtl
o Cylinder
v 0.000000 1.000000 -0.333214
v 0.000000 1.000000 0.333214
v 0.707107 0.707107 -0.333214
v 0.707107 0.707107 0.333214
v 1.000000 -0.000000 -0.333214
v 1.000000 -0.000000 0.333214
v 0.707107 -0.707107 -0.333214
v 0.707107 -0.707107 0.333214
v -0.000000 -1.000000 -0.333214
v -0.000000 -1.000000 0.333214
v -0.707107 -0.707107 -0.333214
v -0.707107 -0.707107 0.333214
v -1.000000 -0.000000 -0.333214
v -1.000000 0.000000 0.333214
v -0.707107 0.707107 -0.333214
v -0.707107 0.707107 0.333214
v 0.978759 3.362933 -0.333214
v 1.685866 3.070040 -0.333214
v 1.685866 3.070040 0.333214
v 0.978759 3.362933 0.333214
vt 0.6698 0.2885
vt 0.5703 0.6878
vt 0.5703 0.2885
vt 0.7401 0.2040
vt 1.0000 0.1195
vt 1.0000 0.2040
vt 0.7401 0.1195
vt 1.0000 0.0000
vt 0.1698 0.6878
vt 0.0995 1.0000
vt 0.0995 0.6878
vt 0.0000 0.6878
vt 0.0000 0.6878
vt 0.2599 0.6033
vt 0.2599 0.6878
vt 0.2599 0.0845
vt 0.4297 0.0000
vt 0.5000 0.2040
vt 0.0000 0.6033
vt 0.2599 0.4838
vt 0.0000 0.4838
vt 0.2599 0.3993
vt 0.5000 0.0845
vt 0.7401 0.0845
vt 0.7401 0.2040
vt 0.5000 1.0000
vt 0.5995 0.6878
vt 0.5995 1.0000
vt 0.7401 0.6033
vt 0.4297 0.2885
vt 0.3302 0.6878
vt 0.3302 0.2885
vt 0.0000 0.0000
vt 0.2599 0.0000
vt 0.6698 0.6878
vt 0.7401 0.0000
vt 0.1698 1.0000
vt 0.0000 1.0000
vt 0.2599 0.2040
vt 0.3302 0.0000
vt 0.5000 0.0845
vt 0.0000 0.3993
vt 0.5000 0.2040
vt 0.5703 0.0000
vt 0.6698 0.0000
vt 0.5000 0.6878
vt 1.0000 0.6033
vt 0.4297 0.6878
vn 0.0000 -0.0000 -1.0000
vn 0.9239 0.3827 0.0000
vn 0.9239 -0.3827 0.0000
vn 0.3827 -0.9239 0.0000
vn -0.3827 -0.9239 0.0000
vn -0.9239 -0.3827 0.0000
vn -0.0000 0.0000 1.0000
vn -0.9239 0.3827 -0.0000
vn -0.3827 0.9239 0.0000
vn 0.3827 0.9239 0.0000
usemtl None
s off
f 1/1/1 18/2/1 3/3/1
f 4/4/2 5/5/2 3/6/2
f 6/7/3 7/8/3 5/5/3
f 7/9/4 10/10/4 9/11/4
f 10/10/5 11/12/5 9/11/5
f 12/13/6 13/14/6 11/15/6
f 14/16/7 10/17/7 6/18/7
f 14/19/8 15/20/8 13/14/8
f 16/21/9 1/22/9 15/20/9
f 7/23/1 13/24/1 15/25/1
f 17/26/10 19/27/10 18/28/10
f 3/6/3 19/29/3 4/4/3
f 4/30/7 20/31/7 2/32/7
f 1/22/8 20/33/8 17/34/8
f 1/1/1 17/35/1 18/2/1
f 4/4/2 6/7/2 5/5/2
f 6/7/3 8/36/3 7/8/3
f 7/9/4 8/37/4 10/10/4
f 10/10/5 12/38/5 11/12/5
f 12/13/6 14/19/6 13/14/6
f 6/18/7 4/30/7 2/32/7
f 2/32/7 16/39/7 6/18/7
f 14/16/7 12/40/7 10/17/7
f 10/17/7 8/41/7 6/18/7
f 6/18/7 16/39/7 14/16/7
f 14/19/8 16/21/8 15/20/8
f 16/21/9 2/42/9 1/22/9
f 15/25/1 1/1/1 7/23/1
f 3/3/1 5/43/1 7/23/1
f 7/23/1 9/44/1 11/45/1
f 11/45/1 13/24/1 7/23/1
f 1/1/1 3/3/1 7/23/1
f 17/26/10 20/46/10 19/27/10
f 3/6/3 18/47/3 19/29/3
f 4/30/7 19/48/7 20/31/7
f 1/22/8 2/42/8 20/33/8
