# Blender v2.77 (sub 0) OBJ File: ''
# www.blender.org
mtllib wall_segment.mtl
o Cube
v 1.000000 0.061934 -0.958710
v 0.958710 0.000000 -0.958710
v 0.958710 0.061934 -0.999999
v 0.994484 0.031008 -0.958710
v 0.994484 0.061934 -0.979328
v 0.989126 0.032317 -0.978455
v 0.958710 0.008274 -0.979328
v 0.979328 0.008274 -0.958710
v 0.978456 0.016312 -0.978455
v 0.979328 0.061934 -0.994483
v 0.958710 0.031008 -0.994483
v 0.978456 0.032317 -0.989125
v 1.000000 0.061934 0.958710
v 0.958710 0.061934 1.000000
v 0.958710 0.000000 0.958710
v 0.994484 0.061934 0.979328
v 0.994484 0.031008 0.958710
v 0.989126 0.032317 0.978455
v 0.958710 0.031008 0.994483
v 0.979328 0.061934 0.994483
v 0.978456 0.032317 0.989125
v 0.979328 0.008274 0.958710
v 0.958710 0.008274 0.979328
v 0.978456 0.016312 0.978455
v -0.958711 0.061934 0.999999
v -1.000000 0.061934 0.958710
v -0.958711 0.000000 0.958710
v -0.979328 0.061934 0.994483
v -0.958711 0.031008 0.994483
v -0.978456 0.032317 0.989125
v -0.994484 0.031008 0.958710
v -0.994484 0.061934 0.979328
v -0.989126 0.032317 0.978455
v -0.958711 0.008274 0.979328
v -0.979328 0.008274 0.958710
v -0.978456 0.016312 0.978455
v -0.958710 0.061934 -1.000000
v -0.958710 0.000000 -0.958710
v -1.000000 0.061934 -0.958710
v -0.958710 0.031008 -0.994484
v -0.979328 0.061934 -0.994484
v -0.978455 0.032317 -0.989125
v -0.979328 0.008274 -0.958710
v -0.958710 0.008274 -0.979328
v -0.978455 0.016312 -0.978455
v -0.994484 0.061934 -0.979328
v -0.994484 0.031008 -0.958710
v -0.989125 0.032317 -0.978455
v 0.958711 2.938066 -0.999999
v 0.958711 3.000000 -0.958709
v 1.000000 2.938066 -0.958709
v 0.958711 2.968992 -0.994483
v 0.979329 2.938066 -0.994483
v 0.978456 2.967683 -0.989125
v 0.979329 2.991726 -0.958709
v 0.958711 2.991726 -0.979327
v 0.978456 2.983688 -0.978455
v 0.994484 2.938066 -0.979327
v 0.994484 2.968992 -0.958709
v 0.989126 2.967683 -0.978455
v 0.958710 2.938066 1.000000
v 0.999999 2.938066 0.958711
v 0.958710 3.000000 0.958711
v 0.979328 2.938066 0.994484
v 0.958710 2.968992 0.994484
v 0.978455 2.967683 0.989126
v 0.994483 2.968992 0.958711
v 0.994483 2.938066 0.979328
v 0.989125 2.967683 0.978456
v 0.958710 2.991726 0.979328
v 0.979328 2.991726 0.958711
v 0.978455 2.983688 0.978456
v -1.000000 2.938066 0.958710
v -0.958711 2.938066 0.999999
v -0.958711 3.000000 0.958710
v -0.994484 2.938066 0.979327
v -0.994484 2.968992 0.958710
v -0.989126 2.967683 0.978455
v -0.958711 2.968992 0.994483
v -0.979328 2.938066 0.994483
v -0.978456 2.967683 0.989125
v -0.979328 2.991726 0.958710
v -0.958711 2.991726 0.979327
v -0.978456 2.983688 0.978455
v -1.000000 2.938066 -0.958710
v -0.958710 3.000000 -0.958710
v -0.958710 2.938066 -1.000000
v -0.994484 2.968992 -0.958710
v -0.994484 2.938066 -0.979328
v -0.989126 2.967683 -0.978455
v -0.958710 2.991726 -0.979328
v -0.979328 2.991726 -0.958710
v -0.978455 2.983688 -0.978455
v -0.979328 2.938066 -0.994483
v -0.958710 2.968992 -0.994483
v -0.978455 2.967683 -0.989125
vt 0.3742 0.4114
vt 0.7306 0.0075
vt 0.7306 0.4114
vt 0.3742 0.4264
vt 0.7306 0.8302
vt 0.3742 0.8302
vt 0.2628 0.5898
vt 0.0109 0.9936
vt 0.0109 0.5898
vt 1.0000 0.4102
vt 0.7481 0.0064
vt 1.0000 0.0064
vt 0.9891 0.4230
vt 0.7372 0.8269
vt 0.7372 0.4230
vt 0.3620 0.2939
vt 0.3658 0.2970
vt 0.3620 0.2978
vt 0.3656 0.2901
vt 0.3656 0.2932
vt 0.3657 0.2863
vt 0.3619 0.2894
vt 0.3619 0.2855
vt 0.3704 0.4114
vt 0.3686 0.4155
vt 0.3676 0.4114
vt 0.3742 0.4157
vt 0.3742 0.4189
vt 0.3706 0.4155
vt 0.3676 0.2916
vt 0.0019 0.2999
vt 0.0057 0.2968
vt 0.0057 0.3007
vt 0.3676 0.8302
vt 0.3706 0.8344
vt 0.3686 0.8344
vt 0.3742 0.8346
vt 0.3704 0.8302
vt 0.3706 0.8366
vt 0.0056 0.2923
vt 0.0018 0.2893
vt 0.0056 0.2884
vt 0.0020 0.2930
vt 0.0020 0.2962
vt 0.0000 0.2946
vt 0.7344 0.8302
vt 0.7306 0.8346
vt 0.7362 0.8344
vt 0.7342 0.8344
vt 0.0074 0.5898
vt 0.0101 0.5854
vt 0.0040 0.5856
vt 0.0068 0.5856
vt 0.0007 0.5854
vt 0.0034 0.5898
vt 0.0000 0.5898
vt 0.7342 0.8366
vt 0.7306 0.8378
vt 0.0054 0.5834
vt 0.3704 0.0075
vt 0.3742 0.0032
vt 0.3742 0.0075
vt 0.3686 0.0034
vt 0.3706 0.0034
vt 0.0034 0.9936
vt 0.0007 0.9979
vt 0.0000 0.9936
vt 0.0074 0.9936
vt 0.0040 0.9978
vt 0.0101 0.9979
vt 0.3706 0.0011
vt 0.3742 0.0000
vt 0.0054 1.0000
vt 0.0068 0.9978
vt 0.7344 0.4114
vt 0.7306 0.4157
vt 0.7362 0.4155
vt 0.7342 0.4155
vt 0.9966 0.4230
vt 0.9993 0.4187
vt 1.0000 0.4230
vt 0.9926 0.4230
vt 0.9960 0.4189
vt 0.9899 0.4187
vt 0.7306 0.4189
vt 0.7342 0.4178
vt 0.9946 0.4166
vt 0.9932 0.4189
vt 0.3704 0.4264
vt 0.3742 0.4221
vt 0.3676 0.4264
vt 0.3706 0.4223
vt 0.9926 0.8269
vt 0.9899 0.8312
vt 0.9891 0.8269
vt 0.9960 0.8310
vt 0.9932 0.8310
vt 0.9993 0.8312
vt 0.9966 0.8269
vt 1.0000 0.8269
vt 0.3706 0.4200
vt 0.3742 0.4189
vt 0.9946 0.8333
vt 0.7379 0.0021
vt 0.7406 0.0064
vt 0.7372 0.0064
vt 0.7344 0.4264
vt 0.7362 0.4223
vt 0.7372 0.4264
vt 0.7306 0.4221
vt 0.7306 0.4264
vt 0.7342 0.4200
vt 0.7342 0.4223
vt 0.7446 0.0064
vt 0.7473 0.0021
vt 0.7440 0.0022
vt 0.7412 0.0022
vt 0.7426 0.0000
vt 0.7406 0.4102
vt 0.7379 0.4146
vt 0.7372 0.4102
vt 0.7440 0.4144
vt 0.7412 0.4144
vt 0.7473 0.4146
vt 0.7446 0.4102
vt 0.7481 0.4102
vt 0.7344 0.0075
vt 0.7362 0.0034
vt 0.7372 0.0075
vt 0.7306 0.0032
vt 0.7306 0.0000
vt 0.7342 0.0034
vt 0.7426 0.4166
vt 0.3601 0.0000
vt 0.3676 0.0075
vt 0.3676 0.5825
vt 0.3742 0.8378
vt 0.0000 0.0037
vt 0.7379 0.8312
vt 0.7372 0.8302
vt 0.2621 0.5854
vt 0.2628 0.9936
vt 0.7372 0.4114
vt 0.9993 0.4146
vt 0.9993 0.0021
vt 0.7306 0.4189
vt 0.0038 0.0029
vt 0.3706 0.4178
vt 0.3686 0.4223
vt 0.7342 0.0011
vt 0.3640 0.0008
vt 0.3638 0.5834
vt 0.2621 0.9979
vn 0.0000 0.0000 -1.0000
vn -0.0000 -0.0000 1.0000
vn -1.0000 -0.0000 -0.0000
vn 0.0000 1.0000 -0.0000
vn 1.0000 -0.0000 0.0000
vn 0.9520 -0.1698 -0.2547
vn 0.8048 -0.5365 -0.2540
vn 0.3490 -0.8697 -0.3490
vn 0.2540 -0.5365 -0.8048
vn 0.2547 -0.1698 -0.9520
vn 0.6994 -0.1471 -0.6994
vn 0.6396 -0.4264 -0.6396
vn 0.9520 -0.1698 0.2547
vn 0.6994 -0.1471 0.6994
vn 0.2547 -0.1698 0.9520
vn 0.2539 -0.5365 0.8048
vn 0.3490 -0.8697 0.3490
vn 0.8048 -0.5365 0.2540
vn 0.6396 -0.4264 0.6396
vn -0.2547 -0.1698 0.9520
vn -0.6994 -0.1471 0.6994
vn -0.9520 -0.1698 0.2547
vn -0.8048 -0.5365 0.2540
vn -0.3490 -0.8697 0.3490
vn -0.2540 -0.5365 0.8048
vn -0.6396 -0.4264 0.6396
vn -0.2547 -0.1698 -0.9520
vn -0.2539 -0.5365 -0.8048
vn -0.3490 -0.8697 -0.3490
vn -0.8048 -0.5365 -0.2540
vn -0.9520 -0.1698 -0.2547
vn -0.6994 -0.1471 -0.6994
vn -0.6396 -0.4264 -0.6396
vn 0.2547 0.1698 -0.9520
vn 0.2540 0.5365 -0.8048
vn 0.3490 0.8697 -0.3490
vn 0.8048 0.5365 -0.2540
vn 0.9520 0.1698 -0.2547
vn 0.6994 0.1471 -0.6994
vn 0.6396 0.4264 -0.6396
vn 0.2547 0.1698 0.9520
vn 0.6994 0.1471 0.6994
vn 0.9520 0.1698 0.2547
vn 0.8048 0.5365 0.2540
vn 0.3490 0.8697 0.3490
vn 0.2540 0.5365 0.8048
vn 0.6396 0.4264 0.6396
vn -0.9520 0.1698 0.2547
vn -0.6994 0.1471 0.6994
vn -0.2547 0.1698 0.9520
vn -0.2540 0.5365 0.8048
vn -0.3490 0.8697 0.3490
vn -0.8048 0.5365 0.2540
vn -0.6396 0.4264 0.6396
vn -0.9520 0.1698 -0.2547
vn -0.8048 0.5365 -0.2540
vn -0.3490 0.8697 -0.3490
vn -0.2540 0.5365 -0.8048
vn -0.2547 0.1698 -0.9520
vn -0.6994 0.1471 -0.6994
vn -0.6396 0.4264 -0.6396
vn 0.9845 -0.1756 0.0000
vn 0.8321 -0.5547 0.0000
vn 0.3724 -0.9281 0.0000
vn 0.0000 -0.9281 -0.3724
vn 0.0000 -0.5547 -0.8320
vn 0.0000 -0.1756 -0.9845
vn 0.2585 0.0000 -0.9660
vn 0.7071 0.0000 -0.7071
vn 0.9660 -0.0000 -0.2585
vn -0.0000 -0.1756 0.9845
vn -0.0000 -0.5547 0.8320
vn 0.0000 -0.9281 0.3724
vn 0.9660 0.0000 0.2585
vn 0.7071 0.0000 0.7071
vn 0.2585 -0.0000 0.9660
vn -0.9845 -0.1756 -0.0000
vn -0.8321 -0.5547 -0.0000
vn -0.3724 -0.9281 -0.0000
vn -0.2584 0.0000 0.9660
vn -0.7071 0.0000 0.7071
vn -0.9660 0.0000 0.2585
vn -0.9660 -0.0000 -0.2585
vn -0.7071 0.0000 -0.7071
vn -0.2584 0.0000 -0.9660
vn 0.3724 0.9281 0.0000
vn 0.8321 0.5547 0.0000
vn 0.9845 0.1756 0.0000
vn 0.0000 0.1756 -0.9845
vn 0.0000 0.5547 -0.8321
vn 0.0000 0.9281 -0.3724
vn -0.0000 0.9281 0.3725
vn -0.0000 0.5547 0.8320
vn -0.0000 0.1756 0.9845
vn -0.3724 0.9281 -0.0000
vn -0.8321 0.5547 -0.0000
vn -0.9845 0.1756 -0.0000
vn 0.0000 -1.0000 0.0000
vn 0.9464 -0.1791 -0.2687
vn 0.3648 -0.8566 -0.3648
vn 0.2539 -0.5365 -0.8048
vn 0.2687 -0.1791 -0.9464
vn 0.9464 -0.1791 0.2687
vn 0.2687 -0.1791 0.9464
vn 0.2540 -0.5365 0.8048
vn 0.3648 -0.8566 0.3648
vn -0.2687 -0.1791 0.9464
vn -0.9464 -0.1791 0.2687
vn -0.3648 -0.8566 0.3648
vn -0.2687 -0.1791 -0.9464
vn -0.2540 -0.5365 -0.8048
vn -0.3648 -0.8566 -0.3648
vn -0.9464 -0.1791 -0.2687
vn 0.2687 0.1791 -0.9464
vn 0.3648 0.8566 -0.3648
vn 0.9464 0.1791 -0.2687
vn 0.2687 0.1791 0.9464
vn 0.9464 0.1791 0.2687
vn 0.3648 0.8566 0.3648
vn -0.9464 0.1791 0.2687
vn -0.2687 0.1791 0.9464
vn -0.3648 0.8566 0.3648
vn -0.9464 0.1791 -0.2687
vn -0.3648 0.8566 -0.3648
vn -0.2687 0.1791 -0.9464
vn 0.8320 -0.5547 0.0000
vn 0.9660 0.0000 0.2584
vn 0.2584 -0.0000 0.9660
vn 0.0000 0.5547 -0.8320
vn -0.0000 0.9281 0.3724
vn -0.0000 0.5547 0.8321
usemtl Material
s off
f 3/1/1 87/2/1 49/3/1
f 61/4/2 25/5/2 14/6/2
f 73/7/3 39/8/3 26/9/3
f 50/10/4 75/11/4 63/12/4
f 51/13/5 13/14/5 1/15/5
f 4/16/6 5/17/6 1/18/6
f 4/16/7 9/19/7 6/20/7
f 7/21/8 8/22/8 2/23/8
f 11/24/9 9/25/9 7/26/9
f 10/27/10 11/24/10 3/1/10
f 5/28/11 12/29/11 10/27/11
f 6/20/12 9/19/12 12/30/12
f 16/31/13 17/32/13 13/33/13
f 16/34/14 21/35/14 18/36/14
f 19/37/15 20/38/15 14/6/15
f 19/37/16 24/39/16 21/35/16
f 22/40/17 23/41/17 15/42/17
f 17/32/18 24/43/18 22/40/18
f 18/44/19 21/45/19 24/43/19
f 28/46/20 29/47/20 25/5/20
f 28/46/21 33/48/21 30/49/21
f 31/50/22 32/51/22 26/9/22
f 31/50/23 36/52/23 33/53/23
f 34/54/24 35/55/24 27/56/24
f 29/47/25 36/57/25 34/58/25
f 30/59/26 33/53/26 36/52/26
f 40/60/27 41/61/27 37/62/27
f 40/60/28 45/63/28 42/64/28
f 43/65/29 44/66/29 38/67/29
f 47/68/30 45/69/30 43/65/30
f 46/70/31 47/68/31 39/8/31
f 41/61/32 48/71/32 46/72/32
f 42/73/33 45/69/33 48/74/33
f 52/75/34 53/76/34 49/3/34
f 52/75/35 57/77/35 54/78/35
f 55/79/36 56/80/36 50/81/36
f 59/82/37 57/83/37 55/79/37
f 58/84/38 59/82/38 51/13/38
f 58/85/39 54/78/39 60/86/39
f 54/87/40 57/83/40 60/88/40
f 64/89/41 65/90/41 61/4/41
f 68/91/42 66/92/42 64/89/42
f 67/93/43 68/94/43 62/95/43
f 67/93/44 72/96/44 69/97/44
f 70/98/45 71/99/45 63/100/45
f 65/90/46 72/101/46 70/102/46
f 66/103/47 69/97/47 72/96/47
f 76/104/48 77/105/48 73/106/48
f 80/107/49 78/108/49 76/109/49
f 79/110/50 80/107/50 74/111/50
f 79/110/51 84/112/51 81/113/51
f 82/114/52 83/115/52 75/11/52
f 77/105/53 84/116/53 82/114/53
f 78/117/54 81/118/54 84/116/54
f 88/119/55 89/120/55 85/121/55
f 88/119/56 93/122/56 90/123/56
f 91/124/57 92/125/57 86/126/57
f 95/127/58 93/128/58 91/129/58
f 94/130/59 95/127/59 87/2/59
f 89/131/60 96/132/60 94/130/60
f 90/123/61 93/122/61 96/133/61
f 13/33/62 4/16/62 1/18/62
f 17/32/63 8/22/63 4/16/63
f 22/40/64 2/23/64 8/22/64
f 38/134/65 7/21/65 2/23/65
f 44/135/66 11/24/66 7/26/66
f 11/24/67 37/62/67 3/1/67
f 49/3/68 10/27/68 3/1/68
f 53/76/69 5/28/69 10/27/69
f 58/136/70 1/18/70 5/17/70
f 25/5/71 19/37/71 14/6/71
f 29/47/72 23/137/72 19/37/72
f 34/138/73 15/42/73 23/41/73
f 62/95/74 16/139/74 13/14/74
f 68/91/75 20/38/75 16/34/75
f 64/89/76 14/6/76 20/38/76
f 39/8/77 31/50/77 26/9/77
f 47/68/78 35/55/78 31/50/78
f 43/65/79 27/56/79 35/55/79
f 74/111/80 28/46/80 25/5/80
f 80/107/81 32/140/81 28/46/81
f 76/141/82 26/9/82 32/51/82
f 85/142/83 46/70/83 39/8/83
f 89/131/84 41/61/84 46/72/84
f 94/130/85 37/62/85 41/61/85
f 63/100/86 55/79/86 50/81/86
f 71/99/87 59/82/87 55/79/87
f 59/82/88 62/95/88 51/13/88
f 49/3/89 95/127/89 52/75/89
f 95/127/90 56/143/90 52/75/90
f 91/124/91 50/10/91 56/144/91
f 75/11/92 70/145/92 63/12/92
f 83/146/93 65/90/93 70/102/93
f 79/110/94 61/4/94 65/90/94
f 86/126/95 82/114/95 75/11/95
f 92/125/96 77/105/96 82/114/96
f 88/119/97 73/106/97 77/105/97
f 2/23/98 27/147/98 38/134/98
f 3/1/1 37/62/1 87/2/1
f 61/4/2 74/111/2 25/5/2
f 73/7/3 85/142/3 39/8/3
f 50/10/4 86/126/4 75/11/4
f 51/13/5 62/95/5 13/14/5
f 4/16/99 6/20/99 5/17/99
f 4/16/7 8/22/7 9/19/7
f 7/21/100 9/19/100 8/22/100
f 11/24/101 12/29/101 9/25/101
f 10/27/102 12/29/102 11/24/102
f 5/28/11 6/148/11 12/29/11
f 16/31/103 18/44/103 17/32/103
f 16/34/14 20/38/14 21/35/14
f 19/37/104 21/35/104 20/38/104
f 19/37/105 23/137/105 24/39/105
f 22/40/106 24/43/106 23/41/106
f 17/32/18 18/44/18 24/43/18
f 28/46/107 30/49/107 29/47/107
f 28/46/21 32/140/21 33/48/21
f 31/50/108 33/53/108 32/51/108
f 31/50/23 35/55/23 36/52/23
f 34/54/109 36/52/109 35/55/109
f 29/47/25 30/49/25 36/57/25
f 40/60/110 42/64/110 41/61/110
f 40/60/111 44/135/111 45/63/111
f 43/65/112 45/69/112 44/66/112
f 47/68/30 48/74/30 45/69/30
f 46/70/113 48/74/113 47/68/113
f 41/61/32 42/64/32 48/71/32
f 52/75/114 54/78/114 53/76/114
f 52/75/35 56/143/35 57/77/35
f 55/79/115 57/83/115 56/80/115
f 59/82/37 60/88/37 57/83/37
f 58/84/116 60/88/116 59/82/116
f 58/85/39 53/76/39 54/78/39
f 64/89/117 66/92/117 65/90/117
f 68/91/42 69/149/42 66/92/42
f 67/93/118 69/97/118 68/94/118
f 67/93/44 71/99/44 72/96/44
f 70/98/119 72/96/119 71/99/119
f 65/90/46 66/92/46 72/101/46
f 76/104/120 78/117/120 77/105/120
f 80/107/49 81/113/49 78/108/49
f 79/110/121 81/113/121 80/107/121
f 79/110/51 83/146/51 84/112/51
f 82/114/122 84/116/122 83/115/122
f 77/105/53 78/117/53 84/116/53
f 88/119/123 90/123/123 89/120/123
f 88/119/56 92/125/56 93/122/56
f 91/124/124 93/122/124 92/125/124
f 95/127/58 96/132/58 93/128/58
f 94/130/125 96/132/125 95/127/125
f 89/131/60 90/150/60 96/132/60
f 13/33/62 17/32/62 4/16/62
f 17/32/126 22/40/126 8/22/126
f 22/40/64 15/42/64 2/23/64
f 38/134/65 44/151/65 7/21/65
f 44/135/66 40/60/66 11/24/66
f 11/24/67 40/60/67 37/62/67
f 49/3/68 53/76/68 10/27/68
f 53/76/69 58/85/69 5/28/69
f 58/136/70 51/152/70 1/18/70
f 25/5/71 29/47/71 19/37/71
f 29/47/72 34/58/72 23/137/72
f 34/138/73 27/147/73 15/42/73
f 62/95/127 68/94/127 16/139/127
f 68/91/75 64/89/75 20/38/75
f 64/89/128 61/4/128 14/6/128
f 39/8/77 47/68/77 31/50/77
f 47/68/78 43/65/78 35/55/78
f 43/65/79 38/67/79 27/56/79
f 74/111/80 80/107/80 28/46/80
f 80/107/81 76/109/81 32/140/81
f 76/141/82 73/7/82 26/9/82
f 85/142/83 89/153/83 46/70/83
f 89/131/84 94/130/84 41/61/84
f 94/130/85 87/2/85 37/62/85
f 63/100/86 71/99/86 55/79/86
f 71/99/87 67/93/87 59/82/87
f 59/82/88 67/93/88 62/95/88
f 49/3/89 87/2/89 95/127/89
f 95/127/129 91/129/129 56/143/129
f 91/124/91 86/126/91 50/10/91
f 75/11/130 83/115/130 70/145/130
f 83/146/131 79/110/131 65/90/131
f 79/110/94 74/111/94 61/4/94
f 86/126/95 92/125/95 82/114/95
f 92/125/96 88/119/96 77/105/96
f 88/119/97 85/121/97 73/106/97
f 2/23/98 15/42/98 27/147/98
