# Blender v2.75 (sub 0) OBJ File: 'wall2.blend'
# www.blender.org
mtllib wall3.mtl
o Cube
v 0.250000 0.000000 -4.999997
v 0.250000 0.000000 4.999998
v -0.250000 0.000000 4.999997
v -0.250000 0.000000 -5.000000
v 0.250000 0.000000 -2.499999
v 0.250000 0.000000 0.000000
v 0.250000 0.000000 2.499999
v 0.212500 0.000000 -4.999997
v 0.000000 0.000000 -4.999998
v -0.212500 0.000000 -4.999999
v 0.250000 0.040000 -4.999997
v 0.250000 2.000000 -4.999996
v 0.250000 3.960000 -4.999996
v 0.212500 0.000000 4.999997
v -0.000000 0.000000 4.999997
v -0.212500 0.000000 4.999997
v 0.250000 0.040000 4.999998
v 0.250000 2.000000 4.999999
v 0.250000 3.960000 5.000000
v -0.250000 0.000000 2.499998
v -0.250000 0.000000 -0.000001
v -0.250000 0.000000 -2.500000
v -0.250000 0.040000 4.999997
v -0.250000 2.000000 4.999996
v -0.250000 3.960000 4.999996
v -0.250000 0.040000 -4.999999
v -0.250000 2.000000 -4.999998
v -0.250000 3.960000 -4.999998
v 0.212500 4.000000 -4.999996
v 0.000000 4.000000 -4.999996
v -0.212500 4.000000 -4.999997
v 0.212500 4.000000 5.000000
v -0.000000 4.000000 4.999998
v -0.212500 4.000000 4.999997
v 0.212500 4.000000 -2.499997
v 0.212500 4.000000 0.000002
v 0.212500 4.000000 2.500000
v 0.000000 4.000000 -2.499998
v -0.000000 4.000000 0.000001
v -0.000000 4.000000 2.499999
v -0.212500 4.000000 -2.499999
v -0.212500 4.000000 0.000000
v -0.212500 4.000000 2.499999
v 0.212500 3.960000 -4.999996
v 0.000000 3.960000 -4.999997
v -0.212500 3.960000 -4.999997
v 0.212500 2.000000 -4.999997
v 0.000000 2.000000 -4.999997
v -0.212500 2.000000 -4.999997
v 0.212500 0.040000 -4.999997
v 0.000000 0.040000 -4.999998
v -0.212500 0.040000 -4.999998
v -0.250000 0.040000 2.499998
v -0.250000 0.040000 -0.000001
v -0.250000 0.040000 -2.500000
v -0.250000 2.000000 2.499998
v -0.250000 2.000000 -0.000001
v -0.250000 2.000000 -2.499999
v -0.250000 3.960000 2.499997
v -0.250000 3.960000 -0.000001
v -0.250000 3.960000 -2.499999
v 0.212500 0.040000 4.999998
v -0.000000 0.040000 4.999997
v -0.212500 0.040000 4.999997
v 0.212500 2.000000 4.999998
v -0.000000 2.000000 4.999998
v -0.212500 2.000000 4.999997
v 0.212500 3.960000 4.999999
v -0.000000 3.960000 4.999998
v -0.212500 3.960000 4.999997
v 0.250000 0.040000 -2.499998
v 0.250000 0.040000 0.000001
v 0.250000 0.040000 2.499999
v 0.250000 2.000000 -2.499997
v 0.250000 2.000000 0.000001
v 0.250000 2.000000 2.500000
v 0.250000 3.960000 -2.499997
v 0.250000 3.960000 0.000002
v 0.250000 3.960000 2.500001
v 0.212500 0.000000 -2.499999
v 0.000000 0.000000 -2.499999
v -0.212500 0.000000 -2.500000
v 0.212500 0.000000 -0.000000
v 0.000000 0.000000 -0.000001
v -0.212500 0.000000 -0.000001
v 0.212500 0.000000 2.499999
v 0.000000 0.000000 2.499998
v -0.212500 0.000000 2.499998
v 0.212500 4.000000 -4.999996
v 0.250000 3.960000 -4.999996
v 0.226851 3.996955 -4.999995
v 0.239017 3.988284 -4.999995
v 0.247145 3.975307 -4.999995
v 0.250000 3.960000 5.000000
v 0.212500 4.000000 5.000000
v 0.247145 3.975307 5.000000
v 0.239016 3.988284 5.000000
v 0.226850 3.996955 5.000000
v 0.212500 4.000000 -2.499997
v 0.250000 3.960000 -2.499997
v 0.226851 3.996955 -2.499997
v 0.239016 3.988284 -2.499996
v 0.247145 3.975307 -2.499997
v 0.212500 4.000000 0.000002
v 0.250000 3.960000 0.000002
v 0.226851 3.996955 0.000002
v 0.239016 3.988284 0.000002
v 0.247145 3.975307 0.000002
v 0.250000 3.960000 2.500001
v 0.212500 4.000000 2.500000
v 0.247145 3.975307 2.500001
v 0.239016 3.988284 2.500001
v 0.226850 3.996955 2.500001
v -0.212500 4.000000 4.999997
v -0.250000 3.960000 4.999996
v -0.226851 3.996955 4.999997
v -0.239017 3.988284 4.999996
v -0.247145 3.975307 4.999996
v -0.250000 3.960000 -4.999998
v -0.212500 4.000000 -4.999997
v -0.247145 3.975307 -4.999998
v -0.239016 3.988284 -4.999997
v -0.226851 3.996955 -4.999997
v -0.212500 4.000000 2.499999
v -0.250000 3.960000 2.499997
v -0.226851 3.996955 2.499998
v -0.239016 3.988284 2.499998
v -0.247145 3.975307 2.499998
v -0.212500 4.000000 -0.000000
v -0.250000 3.960000 -0.000001
v -0.226851 3.996955 -0.000000
v -0.239016 3.988284 -0.000001
v -0.247145 3.975307 -0.000001
v -0.250000 3.960000 -2.499999
v -0.212500 4.000000 -2.499999
v -0.247145 3.975307 -2.499999
v -0.239016 3.988284 -2.499999
v -0.226851 3.996955 -2.499999
vt 0.309364 0.416667
vt 0.309364 0.333333
vt 0.334448 0.333333
vt 0.418060 0.025000
vt 0.334448 0.025000
vt 0.418060 0.308333
vt 0.334448 0.308333
vt 0.000980 0.326011
vt 0.003345 0.308333
vt 0.002065 0.331430
vt 0.331104 0.308333
vt 0.000000 0.000000
vt 0.337793 0.641667
vt 0.335428 0.659344
vt 0.334703 0.651234
vt 0.418060 0.166667
vt 0.334448 0.166667
vt 0.668896 0.025000
vt 0.668896 0.166667
vt 0.585284 0.166667
vt 0.585284 0.025000
vt 0.501672 0.166667
vt 0.501672 0.025000
vt 0.668896 0.308333
vt 0.585284 0.308333
vt 0.501672 0.308333
vt 0.167224 0.308333
vt 0.167224 0.333333
vt 0.003345 0.333333
vt 0.331104 0.333333
vt 0.003344 0.025000
vt 0.003344 0.166667
vt 0.000000 0.166667
vt 0.000000 0.308333
vt 0.167224 0.000000
vt 0.167224 0.025000
vt 0.167224 0.166667
vt 0.331104 0.000000
vt 0.331104 0.025000
vt 0.331104 0.166667
vt 0.334448 0.000000
vt 1.000000 0.083333
vt 0.996655 0.083333
vt 0.996656 0.000000
vt 0.832776 0.083333
vt 0.832776 0.000000
vt 0.668896 0.083333
vt 0.668896 0.000000
vt 0.996656 0.333333
vt 0.996656 0.250000
vt 1.000000 0.250000
vt 0.996656 0.166667
vt 0.832776 0.333333
vt 0.832776 0.250000
vt 0.832776 0.166667
vt 0.668896 0.333333
vt 0.668896 0.250000
vt 0.665552 0.358333
vt 0.665552 0.333333
vt 0.501672 0.358333
vt 0.501672 0.333333
vt 0.337793 0.358333
vt 0.337793 0.333333
vt 0.665552 0.666667
vt 0.665552 0.641667
vt 0.668896 0.641667
vt 0.665552 0.500000
vt 0.668896 0.500000
vt 0.668896 0.358333
vt 0.501672 0.666667
vt 0.501672 0.641667
vt 0.501672 0.500000
vt 0.337793 0.666667
vt 0.337793 0.500000
vt 0.334448 0.641667
vt 0.334448 0.500000
vt 0.334448 0.358333
vt 0.327759 0.750000
vt 0.327759 0.666667
vt 0.331104 0.666667
vt 0.163880 0.750000
vt 0.163880 0.666667
vt 0.000000 0.750000
vt 0.000000 0.666667
vt 0.327759 1.000000
vt 0.327759 0.916667
vt 0.331104 0.916667
vt 0.327759 0.833333
vt 0.331104 0.833333
vt 0.331104 0.750000
vt 0.163880 1.000000
vt 0.163880 0.916667
vt 0.163880 0.833333
vt 0.000000 1.000000
vt 0.000000 0.916667
vt 0.000000 0.833333
vt 0.309364 0.666667
vt 0.309364 0.583333
vt 0.334448 0.583333
vt 0.309364 0.500000
vt 0.334448 0.416667
vt 0.000000 0.583333
vt 0.025084 0.583333
vt 0.025084 0.666667
vt 0.167224 0.583333
vt 0.167224 0.666667
vt 0.000000 0.500000
vt 0.025084 0.500000
vt 0.167224 0.500000
vt 0.000000 0.416667
vt 0.025084 0.416667
vt 0.167224 0.416667
vt 0.000000 0.333333
vt 0.025084 0.333333
vt 0.334448 0.015433
vt 0.418060 0.015433
vt 0.334448 0.007322
vt 0.418060 0.007322
vt 0.334448 0.001903
vt 0.418060 0.001903
vt 0.585284 0.015433
vt 0.668896 0.015433
vt 0.585284 0.007322
vt 0.668896 0.007322
vt 0.585284 0.001903
vt 0.668896 0.001903
vt 0.585284 0.000000
vt 0.501672 0.015433
vt 0.501672 0.007322
vt 0.501672 0.001903
vt 0.501672 0.000000
vt 0.418060 0.000000
vt 0.000980 0.007322
vt 0.002065 0.001903
vt 0.668896 0.317900
vt 0.585284 0.317900
vt 0.668896 0.326011
vt 0.585284 0.326011
vt 0.668896 0.331430
vt 0.585284 0.331430
vt 0.585284 0.333333
vt 0.418060 0.317900
vt 0.334448 0.317900
vt 0.418060 0.326011
vt 0.334448 0.326011
vt 0.418060 0.331430
vt 0.334448 0.331430
vt 0.418060 0.333333
vt 0.501672 0.317900
vt 0.501672 0.326011
vt 0.501672 0.331430
vt 0.334703 0.348766
vt 0.335428 0.340656
vt 0.000255 0.317901
vt 0.336513 0.664764
vt 0.000000 0.025000
vt 0.003344 0.000000
vt 1.000000 0.000000
vt 1.000000 0.333333
vt 1.000000 0.166667
vt 0.668896 0.666667
vt 0.331104 1.000000
vt 0.334448 0.666667
vt 0.000255 0.015433
vt 0.336513 0.335236
vn 0.000000 -1.000000 0.000000
vn 0.000000 -0.707100 0.707100
vn -0.577300 -0.577300 0.577300
vn 0.000000 1.000000 0.000000
vn 0.000000 0.707100 0.707100
vn 0.076100 0.725200 0.684300
vn 0.000000 0.707000 0.707100
vn -0.146700 0.691800 0.707100
vn -0.092800 0.437400 0.894400
vn -0.543100 0.511600 -0.665800
vn 0.000000 0.000000 -1.000000
vn -0.693700 0.270700 -0.667400
vn 0.000000 -0.707100 -0.707100
vn -0.577300 -0.577300 -0.577300
vn -0.316200 0.000000 0.948700
vn -0.322200 0.060100 0.944800
vn -0.695100 0.129600 0.707100
vn 0.000000 0.000000 1.000000
vn 0.543000 0.511600 0.665800
vn 0.300900 0.684500 0.664000
vn 0.000000 0.250300 0.968100
vn 0.707100 0.000000 0.707100
vn 0.695100 0.129600 0.707100
vn 0.322200 0.060100 0.944800
vn 0.000000 0.707100 -0.707100
vn 0.000000 0.948700 0.316200
vn 0.000000 0.755600 -0.655000
vn 0.000000 1.000000 0.000100
vn -0.707100 0.000000 0.707100
vn -0.076100 0.725200 0.684300
vn -0.104300 0.994500 0.000000
vn -0.707100 0.000000 -0.707100
vn -0.993200 0.000000 0.116600
vn 0.655600 0.122300 0.745100
vn 0.707100 0.000000 -0.707100
vn 0.577300 -0.577300 -0.577300
vn -0.707100 -0.707100 0.000000
vn -1.000000 0.000000 0.000000
vn -0.439600 0.082000 0.894400
vn 0.316200 0.000000 0.948700
vn 1.000000 0.000000 0.000000
vn 0.577300 -0.577300 0.577300
vn 0.707100 -0.707100 0.000000
vn 0.137400 0.647300 0.749700
vn 0.131800 0.939000 0.317600
vn 0.104300 0.994500 0.000000
vn 0.402400 0.915400 0.000000
vn 0.727800 0.685700 0.000000
vn 0.693700 0.270600 0.667400
vn 0.931600 0.363400 0.000000
vn 0.300900 0.684500 -0.664000
vn 0.543100 0.511600 -0.665800
vn 0.693700 0.270700 -0.667400
vn -0.300900 0.684500 -0.664000
vn -0.402400 0.915400 0.000000
vn -0.727800 0.685700 0.000000
vn -0.931600 0.363400 0.000000
vn -0.300900 0.684500 0.664000
vn -0.543100 0.511600 0.665800
vn -0.693700 0.270600 0.667400
usemtl Material
s 1
f 88/1/1 16/2/2 3/3/3
f 37/4/4 32/5/5 95/5/6
f 43/6/7 124/6/8 114/7/9
f 122/8/10 46/9/11 121/10/12
f 52/11/11 10/7/13 4/3/14
f 25/12/15 115/12/16 125/12/17
f 68/13/18 97/14/19 98/15/20
f 37/4/4 40/16/4 33/17/5
f 40/16/4 43/6/7 34/7/21
f 79/12/22 109/12/23 94/12/24
f 78/12/22 105/12/23 109/12/23
f 29/18/5 30/19/25 38/20/4
f 35/21/26 38/20/4 39/22/4
f 36/23/4 39/22/4 40/16/4
f 30/19/25 31/24/27 41/25/4
f 38/20/4 41/25/4 42/26/28
f 39/22/4 42/26/28 43/6/7
f 59/12/29 125/12/17 130/12/17
f 60/12/29 130/12/17 134/12/17
f 120/24/30 135/25/31 41/25/4
f 49/27/11 27/28/32 28/29/33
f 52/11/11 26/30/32 27/28/32
f 13/12/22 90/12/34 100/12/23
f 44/31/11 45/32/11 30/33/25
f 45/32/11 46/9/11 31/34/27
f 12/35/35 47/36/11 44/31/11
f 47/36/11 48/37/11 45/32/11
f 48/37/11 49/27/11 46/9/11
f 11/38/35 50/39/11 47/36/11
f 50/39/11 51/40/11 48/37/11
f 48/37/11 51/40/11 52/11/11
f 1/41/36 8/5/13 50/39/11
f 8/5/13 9/17/13 51/40/11
f 9/17/13 10/7/13 52/11/11
f 22/42/37 55/43/38 26/44/32
f 55/43/38 58/45/38 27/46/32
f 61/47/29 28/48/33 27/46/32
f 23/49/29 53/50/38 20/51/37
f 20/51/37 53/50/38 54/52/38
f 54/52/38 55/43/38 22/42/37
f 24/53/29 56/54/38 53/50/38
f 56/54/38 57/55/38 54/52/38
f 57/55/38 58/45/38 55/43/38
f 25/56/15 59/57/29 56/54/38
f 59/57/29 60/19/29 57/55/38
f 60/19/29 61/47/29 58/45/38
f 61/12/29 134/12/17 119/12/39
f 42/26/28 129/26/31 124/6/8
f 135/25/31 129/26/31 42/26/28
f 64/58/18 23/59/29 3/56/3
f 67/60/18 24/61/29 23/59/29
f 70/62/18 25/63/15 24/61/29
f 17/64/22 62/65/18 14/66/2
f 62/65/18 63/67/18 15/68/2
f 63/67/18 64/58/18 16/69/2
f 18/70/22 65/71/18 62/65/18
f 65/71/18 66/72/18 63/67/18
f 66/72/18 67/60/18 64/58/18
f 19/73/40 68/13/18 65/71/18
f 68/13/18 69/74/18 66/72/18
f 69/74/18 70/62/18 67/60/18
f 77/12/22 100/12/23 105/12/23
f 32/75/5 33/76/5 69/74/18
f 33/76/5 34/77/21 70/62/18
f 73/78/41 17/79/22 2/80/42
f 76/81/41 18/82/22 17/79/22
f 79/83/22 19/84/40 18/82/22
f 11/85/35 71/86/41 5/87/43
f 71/86/41 72/88/41 6/89/43
f 72/88/41 73/78/41 7/90/43
f 12/91/35 74/92/41 71/86/41
f 74/92/41 75/93/41 72/88/41
f 75/93/41 76/81/41 73/78/41
f 13/94/22 77/95/22 74/92/41
f 77/95/22 78/96/22 75/93/41
f 78/96/22 79/83/22 76/81/41
f 89/18/44 29/18/5 35/21/26
f 99/21/45 35/21/26 36/23/4
f 36/23/4 37/4/4 110/4/46
f 10/97/13 82/98/1 22/99/37
f 82/98/1 85/100/1 21/76/37
f 85/100/1 88/1/1 20/101/37
f 1/84/36 5/102/43 80/103/1
f 8/104/13 80/103/1 81/105/1
f 9/106/13 81/105/1 82/98/1
f 5/102/43 6/107/43 83/108/1
f 80/103/1 83/108/1 84/109/1
f 81/105/1 84/109/1 85/100/1
f 6/107/43 7/110/43 86/111/1
f 83/108/1 86/111/1 87/112/1
f 84/109/1 87/112/1 88/1/1
f 7/110/43 2/113/42 14/114/2
f 86/111/1 14/114/2 15/28/2
f 15/28/2 16/2/2 88/1/1
f 95/5/6 98/115/20 113/116/47
f 98/115/20 97/117/19 112/118/48
f 97/117/19 96/119/49 111/120/50
f 111/120/50 96/119/49 94/41/24
f 99/21/45 101/121/47 91/122/51
f 101/121/47 102/123/48 92/124/52
f 92/124/52 102/123/48 103/125/50
f 93/126/53 103/125/50 100/127/23
f 104/23/46 106/128/47 101/121/47
f 106/128/47 107/129/48 102/123/48
f 102/123/48 107/129/48 108/130/50
f 108/130/50 105/131/23 100/127/23
f 110/4/46 113/116/47 106/128/47
f 113/116/47 112/118/48 107/129/48
f 112/118/48 111/120/50 108/130/50
f 108/130/50 111/120/50 109/132/23
f 44/31/11 92/133/52 93/134/53
f 120/24/30 123/135/54 138/136/55
f 123/135/54 122/137/10 137/138/56
f 122/137/10 121/139/12 136/140/57
f 121/139/12 119/56/39 134/141/17
f 124/6/8 126/142/55 116/143/58
f 126/142/55 127/144/56 117/145/59
f 127/144/56 128/146/57 118/147/60
f 128/146/57 125/148/17 115/3/16
f 129/26/31 131/149/55 126/142/55
f 131/149/55 132/150/56 127/144/56
f 132/150/56 133/151/57 128/146/57
f 133/151/57 130/61/17 125/148/17
f 135/25/31 138/136/55 131/149/55
f 138/136/55 137/138/56 132/150/56
f 137/138/56 136/140/57 133/151/57
f 136/140/57 134/141/17 130/61/17
f 70/62/18 116/152/58 117/153/59
f 20/101/37 88/1/1 3/3/3
f 110/4/46 37/4/4 95/5/6
f 34/7/21 43/6/7 114/7/9
f 123/154/54 120/34/30 31/34/27
f 46/9/11 122/8/10 123/154/54
f 28/29/33 119/29/39 121/10/12
f 121/10/12 46/9/11 28/29/33
f 46/9/11 123/154/54 31/34/27
f 26/30/32 52/11/11 4/3/14
f 59/12/29 25/12/15 125/12/17
f 95/75/6 32/75/5 68/13/18
f 68/13/18 19/73/40 94/73/24
f 68/13/18 96/155/49 97/14/19
f 68/13/18 98/15/20 95/75/6
f 96/155/49 68/13/18 94/73/24
f 32/5/5 37/4/4 33/17/5
f 33/17/5 40/16/4 34/7/21
f 19/12/40 79/12/22 94/12/24
f 79/12/22 78/12/22 109/12/23
f 35/21/26 29/18/5 38/20/4
f 36/23/4 35/21/26 39/22/4
f 37/4/4 36/23/4 40/16/4
f 38/20/4 30/19/25 41/25/4
f 39/22/4 38/20/4 42/26/28
f 40/16/4 39/22/4 43/6/7
f 60/12/29 59/12/29 130/12/17
f 61/12/29 60/12/29 134/12/17
f 31/24/27 120/24/30 41/25/4
f 46/9/11 49/27/11 28/29/33
f 49/27/11 52/11/11 27/28/32
f 77/12/22 13/12/22 100/12/23
f 29/156/5 44/31/11 30/33/25
f 30/33/25 45/32/11 31/34/27
f 13/157/22 12/35/35 44/31/11
f 44/31/11 47/36/11 45/32/11
f 45/32/11 48/37/11 46/9/11
f 12/35/35 11/38/35 47/36/11
f 47/36/11 50/39/11 48/37/11
f 49/27/11 48/37/11 52/11/11
f 11/38/35 1/41/36 50/39/11
f 50/39/11 8/5/13 51/40/11
f 51/40/11 9/17/13 52/11/11
f 4/158/14 22/42/37 26/44/32
f 26/44/32 55/43/38 27/46/32
f 58/45/38 61/47/29 27/46/32
f 3/159/3 23/49/29 20/51/37
f 21/160/37 20/51/37 54/52/38
f 21/160/37 54/52/38 22/42/37
f 23/49/29 24/53/29 53/50/38
f 53/50/38 56/54/38 54/52/38
f 54/52/38 57/55/38 55/43/38
f 24/53/29 25/56/15 56/54/38
f 56/54/38 59/57/29 57/55/38
f 57/55/38 60/19/29 58/45/38
f 28/12/33 61/12/29 119/12/39
f 43/6/7 42/26/28 124/6/8
f 41/25/4 135/25/31 42/26/28
f 16/69/2 64/58/18 3/56/3
f 64/58/18 67/60/18 23/59/29
f 67/60/18 70/62/18 24/61/29
f 2/161/42 17/64/22 14/66/2
f 14/66/2 62/65/18 15/68/2
f 15/68/2 63/67/18 16/69/2
f 17/64/22 18/70/22 62/65/18
f 62/65/18 65/71/18 63/67/18
f 63/67/18 66/72/18 64/58/18
f 18/70/22 19/73/40 65/71/18
f 65/71/18 68/13/18 66/72/18
f 66/72/18 69/74/18 67/60/18
f 78/12/22 77/12/22 105/12/23
f 68/13/18 32/75/5 69/74/18
f 69/74/18 33/76/5 70/62/18
f 7/90/43 73/78/41 2/80/42
f 73/78/41 76/81/41 17/79/22
f 76/81/41 79/83/22 18/82/22
f 1/162/36 11/85/35 5/87/43
f 5/87/43 71/86/41 6/89/43
f 6/89/43 72/88/41 7/90/43
f 11/85/35 12/91/35 71/86/41
f 71/86/41 74/92/41 72/88/41
f 72/88/41 75/93/41 73/78/41
f 12/91/35 13/94/22 74/92/41
f 74/92/41 77/95/22 75/93/41
f 75/93/41 78/96/22 76/81/41
f 99/21/45 89/18/44 35/21/26
f 104/23/46 99/21/45 36/23/4
f 104/23/46 36/23/4 110/4/46
f 4/163/14 10/97/13 22/99/37
f 22/99/37 82/98/1 21/76/37
f 21/76/37 85/100/1 20/101/37
f 8/104/13 1/84/36 80/103/1
f 9/106/13 8/104/13 81/105/1
f 10/97/13 9/106/13 82/98/1
f 80/103/1 5/102/43 83/108/1
f 81/105/1 80/103/1 84/109/1
f 82/98/1 81/105/1 85/100/1
f 83/108/1 6/107/43 86/111/1
f 84/109/1 83/108/1 87/112/1
f 85/100/1 84/109/1 88/1/1
f 86/111/1 7/110/43 14/114/2
f 87/112/1 86/111/1 15/28/2
f 87/112/1 15/28/2 88/1/1
f 110/4/46 95/5/6 113/116/47
f 113/116/47 98/115/20 112/118/48
f 112/118/48 97/117/19 111/120/50
f 109/132/23 111/120/50 94/41/24
f 89/18/44 99/21/45 91/122/51
f 91/122/51 101/121/47 92/124/52
f 93/126/53 92/124/52 103/125/50
f 90/48/34 93/126/53 100/127/23
f 99/21/45 104/23/46 101/121/47
f 101/121/47 106/128/47 102/123/48
f 103/125/50 102/123/48 108/130/50
f 103/125/50 108/130/50 100/127/23
f 104/23/46 110/4/46 106/128/47
f 106/128/47 113/116/47 107/129/48
f 107/129/48 112/118/48 108/130/50
f 105/131/23 108/130/50 109/132/23
f 44/31/11 29/156/5 89/156/44
f 90/157/34 13/157/22 44/31/11
f 44/31/11 93/134/53 90/157/34
f 44/31/11 91/164/51 92/133/52
f 91/164/51 44/31/11 89/156/44
f 135/25/31 120/24/30 138/136/55
f 138/136/55 123/135/54 137/138/56
f 137/138/56 122/137/10 136/140/57
f 136/140/57 121/139/12 134/141/17
f 114/7/9 124/6/8 116/143/58
f 116/143/58 126/142/55 117/145/59
f 117/145/59 127/144/56 118/147/60
f 118/147/60 128/146/57 115/3/16
f 124/6/8 129/26/31 126/142/55
f 126/142/55 131/149/55 127/144/56
f 127/144/56 132/150/56 128/146/57
f 128/146/57 133/151/57 125/148/17
f 129/26/31 135/25/31 131/149/55
f 131/149/55 138/136/55 132/150/56
f 132/150/56 137/138/56 133/151/57
f 133/151/57 136/140/57 130/61/17
f 115/63/16 25/63/15 70/62/18
f 70/62/18 118/165/60 115/63/16
f 34/77/21 114/77/9 116/152/58
f 70/62/18 117/153/59 118/165/60
f 116/152/58 70/62/18 34/77/21
