# Blender v2.77 (sub 0) OBJ File: ''
# www.blender.org
mtllib wall.mtl
o Cube
v 0.200000 0.000000 -3.999998
v 0.200000 0.000000 3.999998
v -0.200000 0.000000 3.999997
v -0.200000 0.000000 -4.000000
v 0.200000 3.000000 -3.999996
v 0.200000 3.000000 4.000000
v -0.200000 3.000000 3.999997
v -0.200000 3.000000 -3.999998
vt 0.0000 0.6667
vt 0.3333 1.0000
vt 0.0000 1.0000
vt 0.3333 0.3333
vt 0.0000 0.6667
vt 0.0000 0.3333
vt 0.6667 0.0000
vt 0.6667 0.3333
vt 0.0000 0.3333
vt 0.3333 0.0000
vt 0.3333 0.3333
vt 0.6667 0.3333
vt 1.0000 0.0000
vt 1.0000 0.3333
vt 0.6667 0.6667
vt 0.3333 0.6667
vt 0.3333 0.6667
vt 0.3333 0.0000
vt 0.0000 0.0000
vt 0.6667 0.0000
vn 0.0000 -1.0000 0.0000
vn 0.0000 1.0000 -0.0000
vn 1.0000 -0.0000 0.0000
vn -0.0000 0.0000 1.0000
vn -1.0000 -0.0000 -0.0000
vn 0.0000 0.0000 -1.0000
usemtl Material.001
s off
f 1/1/1 3/2/1 4/3/1
f 5/4/2 7/5/2 6/6/2
f 5/4/3 2/7/3 1/8/3
f 2/9/4 7/10/4 3/11/4
f 7/12/5 4/13/5 3/14/5
f 5/4/6 4/15/6 8/16/6
f 1/1/1 2/17/1 3/2/1
f 5/4/2 8/16/2 7/5/2
f 5/4/3 6/18/3 2/7/3
f 2/9/4 6/19/4 7/10/4
f 7/12/5 8/20/5 4/13/5
f 5/4/6 1/8/6 4/15/6
